<?xml version="1.0" encoding="utf-8"?>
<!-- Generator: Adobe Illustrator 25.2.3, SVG Export Plug-In . SVG Version: 6.00 Build 0)  -->
<svg version="1.1" id="Layer_1" xmlns="http://www.w3.org/2000/svg" xmlns:xlink="http://www.w3.org/1999/xlink" x="0px" y="0px"
	 viewBox="0 0 106.9 63.4" style="enable-background:new 0 0 106.9 63.4;" xml:space="preserve">
<style type="text/css">
	.st0{fill:#2DABE2;}
	.st1{fill:#D68194;}
</style>
<path class="st0" d="M106.5,31.2c-0.5-0.8-1.2-1.4-2.1-1.6c-0.9-0.3-1.9-0.1-2.6,0.4l-11.8,9.2l-0.2,0.2c-2.6-2.9-5.2-5.7-7.7-8.6
	l-0.9-1l-5.4-12.1h6.5l5,8.8c0.8,1.7,2.9,2.5,4.7,1.6s2.5-2.9,1.6-4.7c-0.1-0.2-0.2-0.3-0.3-0.5l-6-10.5c-0.6-1.1-1.8-1.7-3-1.7
	H67.9c2.3-2.8,1.9-6.9-0.9-9.2c-0.7-0.6-1.5-1-2.4-1.2H20.1c-3.6,0-6.5,3-6.4,6.6c0,3.1,2.3,5.8,5.4,6.3l-0.6,0.7
	c-0.5,0.5-0.9,1.1-1.4,1.6l-0.7,0.8l-5.1,5.9H3.8c-1.9,0-3.5,1.6-3.5,3.5s1.6,3.5,3.5,3.5h7.4c1.4,0,3.1,0.2,4.1-1.1
	c0.5-0.6,1.1-1.3,1.6-1.9l0,0l4.3-5l5.4,12.2l-1.9,3.6l-7.3,14l-1.2,2.4c-0.8,1.5-1.6,3-2.4,4.5c-0.9,1.7-0.4,3.8,1.2,4.8
	c0.2,0.1,0.4,0.2,0.6,0.3L15.7,63h43c1.2,0,2.3-0.7,2.9-1.7l5.2-10c2.9-5.5,5.7-11,8.6-16.5l0.3-0.6l6.7,7.4l4.4,4.9
	c0.6,0.6,1.4,1,2.3,1c0.7,0.1,1.3-0.1,1.9-0.5l11.7-9.2l2.4-1.9c0.8-0.5,1.4-1.3,1.6-2.1C107.1,33,106.9,32,106.5,31.2z"/>
<circle class="st1" cx="20" cy="6.6" r="6.6"/>
<path class="st1" d="M51.7,23l-6-10.6c-0.6-1.1-1.8-1.7-3-1.7H22.5c-1.8,0-2.6,1.1-3.5,2.2l-2.8,3.2l-6,7l2.5-1L3.5,22
	c-1.9,0.2-3.3,1.9-3.1,3.9c0.2,1.6,1.5,2.9,3.1,3.1H11c1.5,0,3.1,0.2,4.2-1.1l1.6-1.9c2.7-3.1,5.4-6.3,8.1-9.4l-2.5,1h20.1l-3-1.7
	l6,10.6c1.2,1.5,3.5,1.7,5,0.4C51.7,25.9,52.1,24.4,51.7,23z"/>
<path class="st1" d="M34.7,35.3l9.8,10.9l4.5,5c1.1,1.1,2.9,1.3,4.2,0.5l11.8-9.3l2.4-1.9c0.8-0.5,1.3-1.3,1.6-2.2
	c0.5-1.9-0.6-3.8-2.5-4.3c0,0,0,0,0,0c-0.9-0.3-1.9-0.1-2.7,0.4l-11.8,9.2l-2.4,1.9l4.2,0.5l-9.8-10.9l-4.5-5
	c-1.4-1.4-3.6-1.3-5,0.1C33.3,31.7,33.3,33.9,34.7,35.3L34.7,35.3z"/>
<path class="st1" d="M19.8,61.7l5.3-10.1L33.7,35l2.4-4.6c1-1.7,0.4-3.8-1.3-4.8c-1.7-1-3.8-0.4-4.8,1.3L24.8,37l-8.6,16.5l-2.4,4.6
	c-1.1,1.6-0.6,3.8,1,4.9c1.6,1.1,3.8,0.6,4.9-1C19.7,61.9,19.7,61.8,19.8,61.7z"/>
<line class="st1" x1="25.6" y1="14.8" x2="33.6" y2="32.9"/>
<polyline class="st1" points="19.7,17.5 27.6,35.5 39.6,30.2 31.6,12.2 "/>
</svg>
