<?xml version="1.0" encoding="utf-8"?>
<!-- Generator: Adobe Illustrator 25.2.3, SVG Export Plug-In . SVG Version: 6.00 Build 0)  -->
<svg version="1.1" id="Layer_1" xmlns="http://www.w3.org/2000/svg" xmlns:xlink="http://www.w3.org/1999/xlink" x="0px" y="0px"
	 viewBox="0 0 368.9 83.8" style="enable-background:new 0 0 368.9 83.8;" xml:space="preserve">
<style type="text/css">
	.st0{fill:#4AAEDF;}
	.st1{fill:#4E98D2;}
	.st2{fill:#379CD7;}
	.st3{fill:#3288C9;}
	.st4{fill:#0C2030;}
</style>
<path class="st0" d="M368.5,54.8c-0.4-0.7-1.1-1.2-1.9-1.5c-0.8-0.2-1.7-0.1-2.4,0.3l-10.7,8.4l-0.2,0.1l-7-7.8
	c-0.3-0.3-0.5-0.6-0.8-0.9l-4.9-11h5.9l4.5,8c0.9,1.5,2.8,2.1,4.3,1.2c1.5-0.9,2.1-2.8,1.2-4.3c0,0,0,0,0-0.1l-5.4-9.6
	c-0.6-1-1.6-1.6-2.7-1.6h-14.9c0.9-1.1,1.4-2.4,1.4-3.8c0-2.7-1.8-5-4.3-5.7h-79.9v11.6h2.2l6.2,14.7l-12.4,30.9H325
	c1.1,0,2.1-0.6,2.6-1.6c1.6-3,3.2-6.1,4.8-9.1c2.6-5,5.2-10,7.8-15l0.3-0.6c2,2.2,4,4.5,6.1,6.7l4,4.5c0.6,0.6,1.3,0.9,2.1,0.9l0,0
	c0.6,0.1,1.2-0.1,1.7-0.5l10.7-8.3l2.2-1.7c0.7-0.4,1.2-1.1,1.5-1.9C369,56.4,368.9,55.5,368.5,54.8z"/>
<path class="st1" d="M288.3,53.4c-0.8-0.2-1.7-0.1-2.4,0.3l-10.7,8.4l-0.2,0.1l-7-7.8l-0.8-0.9l-4.9-11h5.9l4.5,8
	c0.9,1.5,2.8,2.1,4.3,1.2c1.5-0.9,2.1-2.8,1.2-4.3c0,0,0,0,0-0.1l-5.4-9.6c-0.6-1-1.6-1.6-2.7-1.6h-14.9c0.9-1.1,1.4-2.4,1.4-3.8
	c0-2.7-1.8-5-4.3-5.7h-79.9v11.6h2.2l6.2,14.7l-12.4,30.9h78.5c1.1,0,2.1-0.6,2.6-1.6c1.6-3,3.2-6.1,4.8-9.1l7.8-15l0.3-0.6
	c2,2.2,4,4.5,6.1,6.7l4.1,4.5c0.6,0.6,1.3,0.9,2.1,0.9l0,0c0.6,0.1,1.2-0.1,1.7-0.5l10.7-8.3l2.2-1.7c0.7-0.4,1.2-1.1,1.5-1.9
	C291,55.5,290,53.8,288.3,53.4C288.3,53.4,288.3,53.4,288.3,53.4L288.3,53.4z"/>
<path class="st2" d="M210,53.4c-0.8-0.2-1.7-0.1-2.4,0.3l-10.7,8.4l-0.2,0.1c-2.3-2.6-4.7-5.2-7.1-7.8l-0.8-0.9l-4.9-11h5.9l4.5,8
	c0.9,1.5,2.8,2.1,4.3,1.2s2.1-2.8,1.2-4.3c0,0,0,0,0-0.1l-5.4-9.6c-0.6-1-1.6-1.6-2.7-1.6h-15c0.9-1.1,1.4-2.4,1.4-3.8
	c0-2.7-1.8-5-4.3-5.7H94v11.6h2.2l6.2,14.7L90,83.8h78.5c1.1,0,2.1-0.6,2.6-1.6l4.8-9.1l7.8-15l0.3-0.6c2,2.2,4,4.5,6.1,6.7l4.1,4.5
	c0.6,0.6,1.3,0.9,2.1,0.9l0,0c0.6,0.1,1.2-0.1,1.7-0.5l10.7-8.3l2.2-1.7c0.7-0.4,1.2-1.1,1.5-1.9C212.7,55.5,211.7,53.8,210,53.4
	C210,53.4,210,53.4,210,53.4z"/>
<path class="st3" d="M131.7,53.4c-0.8-0.2-1.7-0.1-2.4,0.3l-10.7,8.4c-0.1,0-0.1,0.1-0.2,0.1c-2.4-2.6-4.7-5.2-7.1-7.8l-0.8-0.9
	l-4.9-11h5.9l4.5,8c0.9,1.5,2.9,2,4.4,1.1c1.5-0.9,2-2.8,1.1-4.3l-5.4-9.6c-0.6-1-1.6-1.6-2.8-1.6H98.5c0.9-1.1,1.4-2.4,1.4-3.8
	c0-2.7-1.8-5-4.3-5.7H15.7v11.6h2.2l0.3,0.7h-5.3v33.8h3.2l-4.4,11.1h78.5c1.1,0,2.1-0.6,2.6-1.6l4.8-9.1l7.8-15l0.3-0.6
	c2,2.2,4,4.5,6.1,6.7l4.1,4.5c0.6,0.6,1.3,0.9,2.1,0.9l0,0c0.6,0.1,1.2-0.1,1.7-0.5l10.7-8.3l2.2-1.7c0.7-0.5,1.2-1.1,1.5-1.9
	C134.4,55.5,133.4,53.8,131.7,53.4C131.7,53.4,131.7,53.4,131.7,53.4L131.7,53.4z"/>
<path class="st4" d="M49.5,83.8H33.3V64.3c0-2.8-1.5-4.2-4.4-4.2H21v15.6h8.3v8.2H0v-8.2h8.3V34.7H0v-8.2h35.5
	c6.9,0,10.3,3.2,10.3,9.5v12.3c0,5.7-1.8,8.9-5.5,9.5v0.2c3.7,0,5.5,2.2,5.5,6.7v10.9h3.7C49.5,75.6,49.5,83.8,49.5,83.8z
	 M33.2,47.1v-9.9c0.2-1.2-0.7-2.3-1.9-2.5c-0.2,0-0.4,0-0.6,0H21v17.1h8.1C31.8,51.8,33.2,50.2,33.2,47.1z"/>
<path class="st4" d="M81.5,50.5v27.2c0.1,1.7-0.7,3.4-2,4.5c-1.6,1.2-3.5,1.7-5.5,1.6H61.3c-2,0.1-3.9-0.5-5.4-1.8
	c-1.2-1.3-1.9-3-1.8-4.8V50c-0.1-1.9,0.8-3.7,2.3-4.8c1.5-1,3.2-1.5,5-1.4h12.9C79.1,43.8,81.5,46.1,81.5,50.5z M72.7,76.4V51.2
	c0-1.1-0.5-1.7-1.4-1.7h-6.8c-1,0-1.5,0.6-1.5,1.8v25.2c-0.1,0.8,0.4,1.5,1.2,1.6c0.1,0,0.3,0,0.4,0h6.6
	C72.2,78.1,72.7,77.5,72.7,76.4z"/>
<path class="st4" d="M116.7,43.8v5.7h-20c-1,0-1.6,0.6-1.6,1.8v25.2c-0.1,0.8,0.5,1.5,1.3,1.6c0.1,0,0.3,0,0.4,0h6.6
	c1,0,1.5-0.6,1.5-1.7v-5.9h8.8v7.1c0.1,1.7-0.7,3.4-2,4.5c-1.6,1.2-3.5,1.8-5.5,1.7H93.5c-4.8,0-7.2-2.2-7.2-6.6V50
	c-0.1-1.9,0.8-3.7,2.3-4.8c1.5-1,3.2-1.5,5-1.4L116.7,43.8z"/>
<path class="st4" d="M157.2,43.8v5.7h-7.9v28.6h5.3v5.7h-18.4v-5.7h4.3V66.7h-10.1v11.4h4.2v5.7h-18.4v-5.7h5.3V49.5h-5.3v-5.7h18.4
	v5.7h-4.2V61h10.1V49.5h-4.3v-5.7H157.2z"/>
<path class="st4" d="M193.6,43.8v5.7h-19v11.3h2.8v-2.7h4.3v10.6h-4.3v-2.5h-2.8v11.9h10.2v-5.4h5.6v11.1h-30.4v-5.7h5.8V49.5h-5.8
	v-5.7H193.6z"/>
<path class="st4" d="M227.1,43.8v5.7h-20.3c-1.1,0-1.7,0.5-1.7,1.6v3.6c0,1.4,1,2.7,2.3,3.1l13,5.6c2.1,0.9,3.2,3,3.2,6.1v7.6
	c0.1,1.8-0.5,3.5-1.7,4.8c-1.5,1.3-3.4,2-5.4,1.8h-12.7c-2,0.1-4-0.5-5.6-1.6c-1.3-1.1-2.1-2.8-2-4.5v-7.2h8.8v5.9
	c0,1.1,0.5,1.7,1.6,1.7h6.6c1.1,0,1.7-0.5,1.7-1.6v-3.6c0.1-1.4-0.8-2.6-2.1-3.1l-13.1-5.6c-2.3-1-3.5-3-3.5-6.1v-7.6
	c0-4.4,2.4-6.6,7.2-6.6H227.1z"/>
<path class="st4" d="M262.8,43.8v5.7h-12v28.6h5.8v5.7h-20.5v-5.7h5.8V49.5H235v5.4h-5.2V43.8H262.8z"/>
<path class="st4" d="M296.4,43.8v5.7h-19v11.3h2.8v-2.7h4.3v10.6h-4.3v-2.5h-2.8v11.9h10.2v-5.4h5.6v11.1h-30.4v-5.7h5.8V49.5h-5.8
	v-5.7H296.4z"/>
<path class="st4" d="M330.4,83.8h-11.3V70.2c0-2-1-2.9-3.1-2.9h-5.6v10.9h5.8v5.7h-20.4v-5.7h5.8V49.5h-5.8v-5.7h24.8
	c4.8,0,7.2,2.2,7.2,6.6V59c0,4-1.3,6.2-3.9,6.6v0.2c2.6,0,3.9,1.6,3.9,4.7v7.6h2.6L330.4,83.8L330.4,83.8z M319,58.1v-6.9
	c0.1-0.8-0.5-1.6-1.3-1.7c-0.1,0-0.3,0-0.4,0h-6.8v11.9h5.7C318,61.5,319,60.4,319,58.1z"/>
<path class="st4" d="M53.3,0v3.4h-12c-0.7,0-1,0.3-1,1v2.1c0,0.8,0.6,1.6,1.4,1.8l7.7,3.3c1.3,0.6,1.9,1.8,1.9,3.6v4.5
	c0.1,1-0.3,2.1-1,2.8c-0.9,0.8-2.1,1.2-3.3,1.1h-7.5c-1.2,0.1-2.3-0.3-3.3-1C35.4,22,35,21,35.1,20v-4.2h5.2v3.5c0,0.7,0.3,1,0.9,1
	h3.9c0.7,0,1-0.3,1-1v-2.1c0-0.8-0.4-1.6-1.2-1.8L37.1,12c-1.4-0.6-2.1-1.8-2.1-3.6V3.9c0-2.6,1.4-3.9,4.3-3.9H53.3z"/>
<path class="st4" d="M70.2,0v3.4H51.9V0H70.2z M68.3,20c0.1,1.1-0.5,2.2-1.4,2.8c-0.9,0.6-1.9,0.9-3,0.9h-5.2v7.6h-6.7v-3.4h1.7V8.8
	h-1.7v-3h6.6v2.5c1.3-1.6,3.3-2.5,5.4-2.5c1.2-0.1,2.4,0.3,3.3,1.2c0.7,0.7,1.1,1.8,1.1,2.8V20z M63.2,10.2c0-0.6-0.3-0.9-1-0.9
	c-0.8,0.2-1.5,0.5-2,1.1c-0.6,0.5-1.2,1.1-1.6,1.8v8.1c0,0.7,0.3,1,0.9,1h2.9c0.6,0,0.9-0.4,0.9-1.1L63.2,10.2L63.2,10.2z"/>
<path class="st4" d="M86.7,0v3.4H70V0H86.7z M84.7,16.1H75v4.1c-0.1,0.5,0.2,0.9,0.7,1c0.1,0,0.2,0,0.3,0h2.6c0.6,0,0.9-0.3,0.9-1
	v-2.4h5.1V20c0,1-0.4,2-1.2,2.7c-0.9,0.7-2.1,1.1-3.2,1h-6c-1.2,0.1-2.3-0.3-3.2-1.1c-0.7-0.8-1.1-1.8-1-2.8V9.5
	c-0.1-1.1,0.5-2.2,1.4-2.8c0.9-0.6,1.9-0.9,3-0.8h6.1c2.8,0,4.2,1.3,4.2,3.8L84.7,16.1L84.7,16.1z M79.6,14.1V9.3c0-0.7-0.3-1-0.8-1
	H76c-0.6,0-0.9,0.4-0.9,1.1v4.8L79.6,14.1z"/>
<path class="st4" d="M103.1,0v3.4H86.4V0H103.1z M101.1,16.1h-9.6v4.1c-0.1,0.5,0.2,0.9,0.7,1c0.1,0,0.2,0,0.3,0h2.6
	c0.6,0,0.9-0.3,0.9-1v-2.4h5.1V20c0,1-0.4,2-1.2,2.7c-0.9,0.7-2.1,1.1-3.2,1h-6c-1.2,0.1-2.3-0.3-3.2-1.1c-0.7-0.7-1.1-1.8-1.1-2.8
	V9.5c-0.1-1.1,0.5-2.2,1.4-2.8c0.9-0.6,1.9-0.9,3-0.8h6.1c2.8,0,4.2,1.3,4.2,3.8C101.1,9.6,101.1,16.1,101.1,16.1z M96,14.1V9.3
	c0-0.7-0.3-1-0.8-1h-2.8c-0.6,0-0.9,0.4-0.9,1.1v4.8L96,14.1z"/>
<path class="st4" d="M119,23.7h-11.9c-1.2,0.1-2.3-0.3-3.2-1.1c-0.7-0.8-1.1-1.8-1-2.8V9.5c-0.1-1.1,0.5-2.2,1.4-2.8
	c0.9-0.6,1.9-0.9,3-0.8h5.3V3.4H111V0h6.5v20.3h1.5V23.7z M109.4,0v3.4h-6.5V0H109.4z M113,9.3c0-0.7-0.3-1-0.9-1h-2.8
	c-0.6,0-0.9,0.4-0.9,1.1v10.9c-0.1,0.5,0.2,0.9,0.7,1c0.1,0,0.2,0,0.3,0h2.6c0.5,0.1,0.9-0.3,0.9-0.7c0-0.1,0-0.2,0-0.2L113,9.3
	L113,9.3z"/>
<path class="st4" d="M137.3,0v3.4h-16.9V0H137.3z M135.3,15.6h-5.1V9.8c0-0.1,0-0.3,0-0.4c-0.1-0.1-0.1-0.1-0.2-0.1
	c-0.3,0-0.8,0.4-1.6,1.2c-0.5,0.5-0.9,1.1-1.3,1.7v8.2h1.6v3.4h-8.2v-3.4h1.7V8.8h-1.7v-3h6.5v2.5c0.6-0.6,1.3-1.1,2-1.5
	c0.9-0.6,2-0.9,3.1-1c0.9,0,1.7,0.2,2.4,0.8c0.6,0.5,0.9,1.3,0.9,2.1L135.3,15.6L135.3,15.6z"/>
<path class="st4" d="M155.8,0v3.4H137V0H155.8z M153.4,19.7c0,2.6-1.4,3.9-4.1,3.9h-6.2c-1.2,0.1-2.3-0.3-3.2-1.1
	c-0.8-0.7-1.2-1.8-1.1-2.9V8.8H137v-3h6.8v14.4c-0.1,0.5,0.2,0.9,0.7,1c0.1,0,0.2,0,0.3,0h2.6c0.5,0.1,0.9-0.3,0.9-0.7
	c0-0.1,0-0.2,0-0.2V8.8h-1.7v-3h6.8L153.4,19.7L153.4,19.7z"/>
<path class="st4" d="M173.1,0v3.4h-17.5V0H173.1z M170.9,23.7h-5.2V9.7c0-0.1,0-0.3-0.1-0.4c0-0.1-0.1-0.1-0.2-0.1
	c-0.4,0-1.1,0.4-2,1.4c-0.5,0.5-0.9,1-1.3,1.6v8.2h1.6v3.4h-8.2v-3.4h1.7V8.8h-1.7v-3h6.6v2.6c0.6-0.6,1.4-1.2,2.2-1.6
	c1-0.6,2.1-0.9,3.3-1c0.9,0,1.7,0.2,2.4,0.8c0.6,0.5,0.9,1.3,0.9,2.1V23.7z"/>
<path class="st4" d="M189.5,0v3.4h-16.7V0H189.5z M187.5,11.6h-5.1V9.3c0-0.7-0.3-1-0.9-1h-2.7c-0.5-0.1-0.9,0.2-1,0.7
	c0,0.1,0,0.2,0,0.3V11c-0.1,0.8,0.5,1.5,1.3,1.6l5.3,1.2c1.8,0.2,3.1,1.8,3,3.6v2.5c0,2.6-1.5,3.9-4.4,3.9h-5.8
	c-1.2,0.1-2.3-0.3-3.3-1c-0.8-0.7-1.2-1.7-1.2-2.7v-2h5.1v2.2c0,0.7,0.3,1,0.9,1h2.6c0.5,0.1,0.9-0.2,1-0.7c0-0.1,0-0.2,0-0.3v-1.3
	c0-1.1-0.4-1.7-1.2-1.9l-5.7-1.3c-1.7-0.3-2.9-1.8-2.7-3.5V9.8c-0.1-1,0.3-2.1,1.1-2.8c0.9-0.8,2-1.2,3.2-1.1h6
	c1.2-0.1,2.3,0.3,3.3,1c0.8,0.7,1.2,1.6,1.2,2.7L187.5,11.6L187.5,11.6z"/>
</svg>
