<?xml version="1.0" encoding="utf-8"?>
<!-- Generator: Adobe Illustrator 12.0.0, SVG Export Plug-In . SVG Version: 6.00 Build 51448)  -->
<!DOCTYPE svg PUBLIC "-//W3C//DTD SVG 1.1//EN" "http://www.w3.org/Graphics/SVG/1.1/DTD/svg11.dtd" [
	<!ENTITY ns_svg "http://www.w3.org/2000/svg">
	<!ENTITY ns_xlink "http://www.w3.org/1999/xlink">
]>
<svg  version="1.1" id="Layer_1" xmlns="&ns_svg;" xmlns:xlink="&ns_xlink;" width="733.025" height="508.673"
	 viewBox="0 0 733.025 508.673" overflow="visible" enable-background="new 0 0 733.025 508.673" xml:space="preserve">
<g>
	<path fill="#49AEE1" d="M379.997,54.821c-0.426-0.724-1.131-1.254-1.944-1.463c-0.726-0.187-1.788-0.146-2.409,0.34l-10.697,8.35
		c-0.062,0.048-0.123,0.096-0.185,0.145c-2.353-2.609-4.705-5.217-7.058-7.826c-0.262-0.291-0.524-0.582-0.787-0.873l-4.878-11.025
		h5.902c1.509,2.664,3.018,5.328,4.527,7.992c0.853,1.505,2.87,2.007,4.349,1.14c1.509-0.884,1.995-2.841,1.141-4.349
		c-1.807-3.189-3.613-6.378-5.419-9.567c-0.55-0.97-1.637-1.574-2.745-1.574h-14.942c0.864-1.031,1.386-2.358,1.386-3.809
		c0-2.717-1.828-5.005-4.32-5.708h-79.882v11.64h2.191l6.201,14.676L258.06,83.793h78.467l0.002-0.005
		c1.067-0.037,2.118-0.572,2.631-1.556c1.585-3.039,3.17-6.077,4.754-9.116c2.607-4.999,5.215-9.998,7.822-14.998
		c0.099-0.189,0.198-0.378,0.297-0.568c2.023,2.244,4.047,4.487,6.07,6.731c1.353,1.5,2.705,2.999,4.057,4.499
		c0.478,0.529,1.297,0.864,2.108,0.911l0.005,0.006l-0.005-0.006c0.632,0.037,1.26-0.102,1.717-0.458
		c3.566-2.783,7.131-5.566,10.697-8.35c0.73-0.57,1.46-1.14,2.19-1.71c0.701-0.547,1.231-1.046,1.463-1.944
		C380.546,56.417,380.423,55.544,379.997,54.821z"/>
	<path fill="#4C97D2" d="M299.782,53.357c-0.726-0.187-1.787-0.146-2.409,0.34l-10.697,8.35c-0.062,0.048-0.123,0.096-0.185,0.145
		c-2.353-2.609-4.705-5.217-7.058-7.826c-0.262-0.291-0.524-0.582-0.787-0.873l-4.877-11.025h5.902
		c1.509,2.664,3.018,5.328,4.527,7.992c0.853,1.505,2.87,2.007,4.349,1.14c1.509-0.884,1.995-2.841,1.141-4.349
		c-1.807-3.189-3.613-6.378-5.419-9.567c-0.55-0.97-1.636-1.574-2.745-1.574h-14.942c0.864-1.031,1.386-2.358,1.386-3.809
		c0-2.717-1.828-5.005-4.32-5.708h-79.882v11.64h2.19l6.201,14.676l-12.369,30.883h78.467l0.002-0.005
		c1.067-0.037,2.118-0.572,2.631-1.556c1.585-3.039,3.17-6.077,4.754-9.116c2.607-4.999,5.215-9.998,7.822-14.998
		c0.099-0.189,0.197-0.378,0.296-0.568c2.023,2.244,4.047,4.487,6.071,6.731c1.352,1.5,2.705,2.999,4.057,4.499
		c0.478,0.529,1.297,0.864,2.109,0.911l0.005,0.006l-0.005-0.006c0.632,0.037,1.26-0.102,1.717-0.458
		c3.565-2.783,7.131-5.566,10.697-8.35c0.73-0.57,1.46-1.14,2.19-1.71c0.701-0.547,1.231-1.046,1.463-1.944
		c0.209-0.813,0.086-1.686-0.34-2.409C301.3,54.097,300.595,53.567,299.782,53.357z"/>
	<path fill="#339CD7" d="M221.512,53.357c-0.726-0.187-1.788-0.146-2.409,0.34l-10.697,8.35c-0.062,0.048-0.124,0.096-0.185,0.145
		c-2.353-2.609-4.706-5.217-7.058-7.826c-0.263-0.291-0.525-0.582-0.787-0.873l-4.877-11.025h5.902
		c1.509,2.664,3.018,5.328,4.527,7.992c0.853,1.505,2.87,2.007,4.349,1.14c1.509-0.884,1.995-2.841,1.141-4.349
		c-1.806-3.189-3.613-6.378-5.419-9.567c-0.55-0.97-1.637-1.574-2.745-1.574h-14.942c0.865-1.031,1.386-2.358,1.386-3.809
		c0-2.717-1.827-5.005-4.32-5.708h-79.882v11.64h2.19l6.201,14.676l-12.369,30.883h78.467l0.002-0.005
		c1.067-0.037,2.118-0.572,2.631-1.556c1.585-3.039,3.17-6.077,4.754-9.116c2.607-4.999,5.215-9.998,7.823-14.998
		c0.099-0.189,0.197-0.378,0.296-0.568c2.023,2.244,4.047,4.487,6.07,6.731c1.353,1.5,2.706,2.999,4.057,4.499
		c0.478,0.529,1.297,0.864,2.108,0.911l0.006,0.006l-0.005-0.006c0.633,0.037,1.26-0.102,1.717-0.458
		c3.565-2.783,7.131-5.566,10.697-8.35c0.73-0.57,1.46-1.14,2.19-1.71c0.7-0.547,1.231-1.046,1.463-1.944
		c0.21-0.813,0.086-1.686-0.34-2.409C223.029,54.097,222.324,53.567,221.512,53.357z"/>
	<path fill="#3088C9" d="M143.241,53.357c-0.726-0.187-1.788-0.146-2.409,0.34l-10.697,8.35c-0.062,0.048-0.123,0.096-0.185,0.145
		c-2.353-2.609-4.705-5.217-7.058-7.826c-0.262-0.291-0.524-0.582-0.787-0.873l-4.878-11.025h5.902
		c1.509,2.664,3.018,5.328,4.527,7.992c0.853,1.505,2.87,2.007,4.349,1.14c1.509-0.884,1.995-2.841,1.141-4.349
		c-1.806-3.189-3.613-6.378-5.419-9.567c-0.55-0.97-1.637-1.574-2.745-1.574h-14.942c0.865-1.031,1.386-2.358,1.386-3.809
		c0-2.717-1.828-5.005-4.32-5.708H27.225v11.64h2.191l0.3,0.709h-5.269v33.769h3.239l-4.438,11.082h78.467l0.002-0.005
		c1.067-0.037,2.118-0.572,2.631-1.556c1.585-3.039,3.17-6.077,4.754-9.116c2.607-4.999,5.215-9.998,7.823-14.998
		c0.099-0.189,0.197-0.378,0.296-0.568c2.023,2.244,4.047,4.487,6.07,6.731c1.353,1.5,2.705,2.999,4.057,4.499
		c0.478,0.529,1.297,0.864,2.108,0.911l0.006,0.006l-0.005-0.006c0.632,0.037,1.26-0.102,1.717-0.458
		c3.566-2.783,7.131-5.566,10.697-8.35c0.73-0.57,1.46-1.14,2.19-1.71c0.701-0.547,1.231-1.046,1.463-1.944
		c0.21-0.813,0.086-1.686-0.34-2.409C144.759,54.097,144.054,53.567,143.241,53.357z"/>
</g>
<path fill="#B3B2B2" d="M413.083,214.219c-0.426-0.723-1.131-1.253-1.943-1.463c-0.727-0.188-1.788-0.146-2.41,0.34l-10.696,8.351
	c-0.062,0.048-0.124,0.096-0.185,0.144c-2.354-2.608-4.705-5.217-7.059-7.825c-0.262-0.29-0.523-0.581-0.786-0.872l-4.877-11.025
	h5.902c1.51,2.664,3.019,5.328,4.527,7.992c0.854,1.505,2.87,2.007,4.35,1.141c1.509-0.884,1.994-2.841,1.141-4.35
	c-1.807-3.188-3.613-6.378-5.42-9.566c-0.549-0.971-1.637-1.574-2.744-1.574h-62.434l7.097,16.798l-12.369,30.883h44.436
	l0.002-0.006c1.067-0.035,2.118-0.57,2.631-1.555c1.585-3.039,3.17-6.076,4.755-9.115c2.607-5,5.214-9.999,7.822-14.998
	c0.099-0.189,0.197-0.379,0.296-0.568c2.023,2.244,4.047,4.487,6.07,6.73c1.353,1.5,2.705,3,4.058,4.499
	c0.477,0.529,1.297,0.864,2.107,0.911l0.006,0.006l-0.004-0.006c0.632,0.037,1.26-0.102,1.717-0.458
	c3.564-2.783,7.131-5.566,10.696-8.35c0.729-0.57,1.46-1.141,2.19-1.71c0.7-0.547,1.23-1.047,1.463-1.944
	C413.633,215.815,413.509,214.942,413.083,214.219z M379.325,191.7c0-3.275-2.655-5.931-5.931-5.931h-44.24v11.862h44.24
	C376.67,197.632,379.325,194.977,379.325,191.7z"/>
<path fill="#8B8B8A" d="M368.844,214.219c-0.427-0.723-1.131-1.253-1.944-1.463c-0.726-0.188-1.788-0.146-2.409,0.34l-10.697,8.351
	c-0.062,0.048-0.123,0.096-0.185,0.144c-2.353-2.608-4.705-5.217-7.058-7.825c-0.262-0.29-0.524-0.581-0.787-0.872l-4.877-11.025
	h5.902c1.509,2.664,3.018,5.328,4.527,7.992c0.853,1.505,2.87,2.007,4.349,1.141c1.509-0.884,1.995-2.841,1.141-4.35
	c-1.807-3.188-3.613-6.378-5.419-9.566c-0.55-0.971-1.637-1.574-2.745-1.574h-62.434l7.098,16.798l-12.369,30.883h44.436
	l0.002-0.006c1.067-0.035,2.118-0.57,2.631-1.555c1.585-3.039,3.17-6.076,4.754-9.115c2.607-5,5.215-9.999,7.822-14.998
	c0.099-0.189,0.198-0.379,0.297-0.568c2.023,2.244,4.047,4.487,6.07,6.73c1.353,1.5,2.705,3,4.057,4.499
	c0.478,0.529,1.297,0.864,2.108,0.911l0.005,0.006l-0.005-0.006c0.633,0.037,1.26-0.102,1.717-0.458
	c3.566-2.783,7.131-5.566,10.697-8.35c0.73-0.57,1.46-1.141,2.19-1.71c0.701-0.547,1.231-1.047,1.463-1.944
	C369.393,215.815,369.27,214.942,368.844,214.219z M335.085,191.7c0-3.275-2.656-5.931-5.932-5.931h-44.24v11.862h44.24
	C332.43,197.632,335.085,194.977,335.085,191.7z"/>
<path fill="#676768" d="M324.604,214.219c-0.426-0.723-1.131-1.253-1.944-1.463c-0.726-0.188-1.788-0.146-2.409,0.34l-10.697,8.351
	c-0.062,0.048-0.124,0.096-0.185,0.144c-2.353-2.608-4.706-5.217-7.058-7.825c-0.263-0.291-0.525-0.582-0.787-0.872l-4.877-11.025
	h5.902c1.509,2.664,3.018,5.328,4.527,7.992c0.853,1.505,2.87,2.007,4.349,1.141c1.509-0.884,1.995-2.841,1.14-4.35
	c-1.806-3.188-3.612-6.378-5.419-9.566c-0.55-0.971-1.637-1.574-2.745-1.574h-62.434l7.098,16.798l-12.369,30.883h44.437
	l0.002-0.006c1.067-0.035,2.118-0.57,2.631-1.555c1.585-3.039,3.17-6.076,4.755-9.115c2.607-5,5.215-9.999,7.822-14.998
	c0.099-0.189,0.198-0.379,0.296-0.568c2.023,2.243,4.047,4.487,6.07,6.73c1.353,1.5,2.706,3,4.058,4.499
	c0.478,0.529,1.297,0.864,2.108,0.911l0.006,0.006l-0.005-0.006c0.632,0.036,1.26-0.102,1.717-0.458
	c3.566-2.784,7.131-5.566,10.697-8.351c0.73-0.569,1.46-1.14,2.19-1.709c0.7-0.547,1.231-1.047,1.463-1.944
	C325.153,215.815,325.03,214.942,324.604,214.219z M290.845,191.7c0-3.275-2.655-5.931-5.931-5.931h-44.24v11.862h44.24
	C288.19,197.632,290.845,194.976,290.845,191.7z"/>
<path fill="#40413F" d="M280.364,214.219c-0.426-0.723-1.131-1.253-1.944-1.463c-0.726-0.188-1.788-0.146-2.409,0.34l-10.697,8.351
	c-0.062,0.048-0.123,0.096-0.185,0.144c-2.353-2.608-4.705-5.217-7.058-7.825c-0.262-0.291-0.524-0.582-0.787-0.872l-4.877-11.025
	h5.902c1.509,2.664,3.018,5.328,4.527,7.992c0.853,1.505,2.87,2.007,4.349,1.141c1.509-0.884,1.995-2.841,1.141-4.35
	c-1.806-3.188-3.613-6.378-5.419-9.566c-0.55-0.971-1.637-1.574-2.745-1.574h-62.434l7.098,16.798l-12.369,30.883h44.436
	l0.002-0.004c1.067-0.037,2.118-0.572,2.631-1.557c1.585-3.039,3.17-6.076,4.754-9.115c2.608-5,5.215-9.999,7.822-14.998
	c0.099-0.189,0.198-0.379,0.297-0.568c2.023,2.243,4.047,4.487,6.07,6.73c1.353,1.5,2.705,3,4.057,4.499
	c0.478,0.529,1.297,0.864,2.108,0.911l0.005,0.006l-0.004-0.006c0.632,0.036,1.26-0.102,1.717-0.458
	c3.565-2.784,7.131-5.566,10.697-8.351c0.73-0.569,1.46-1.14,2.19-1.709c0.701-0.547,1.231-1.047,1.463-1.944
	C280.913,215.815,280.79,214.942,280.364,214.219z M246.605,191.7c0-3.275-2.656-5.931-5.931-5.931h-44.24v11.862h44.24
	C243.95,197.632,246.605,194.976,246.605,191.7z"/>
<g>
	<circle fill="#010101" cx="143.284" cy="196.811" r="5.931"/>
	<path fill="#010101" d="M170.936,214.379c-1.807-3.189-3.613-6.378-5.419-9.567c-0.55-0.971-1.636-1.574-2.745-1.574
		c-4.475,0-8.949,0-13.424,0c-1.59,0-3.18,0-4.771,0c-1.616,0-2.313,1.006-3.204,2.04c-0.833,0.966-1.665,1.932-2.498,2.896
		c-1.816,2.106-3.631,4.212-5.447,6.318c0.75-0.311,1.499-0.621,2.248-0.932c-2.755-0.01-5.51-0.02-8.265-0.03
		c-1.733-0.006-3.179,1.451-3.179,3.179c0,1.738,1.446,3.173,3.179,3.18c2.261,0.008,4.521,0.016,6.782,0.024
		c1.329,0.005,2.794,0.16,3.781-0.984c0.5-0.579,0.999-1.158,1.498-1.738c2.451-2.842,4.901-5.685,7.352-8.526
		c-0.749,0.311-1.498,0.62-2.248,0.931c4.475,0,8.949,0,13.424,0c1.59,0,3.181,0,4.771,0c-0.915-0.524-1.83-1.05-2.745-1.574
		c1.806,3.188,3.613,6.378,5.419,9.566c0.853,1.506,2.87,2.007,4.349,1.141C171.304,217.844,171.791,215.887,170.936,214.379z"/>
	<path fill="#010101" d="M155.605,225.49c2.959,3.282,5.918,6.564,8.878,9.845c1.352,1.498,2.705,2.998,4.057,4.498
		c0.85,0.941,2.783,1.268,3.826,0.453c3.566-2.783,7.131-5.566,10.697-8.35c0.73-0.57,1.46-1.141,2.19-1.711
		c0.701-0.546,1.231-1.046,1.463-1.944c0.21-0.813,0.087-1.686-0.34-2.408c-0.426-0.724-1.131-1.254-1.944-1.464
		c-0.726-0.187-1.787-0.146-2.409,0.34c-3.565,2.783-7.131,5.568-10.697,8.351c-0.73,0.568-1.46,1.139-2.19,1.709
		c1.275,0.15,2.55,0.303,3.826,0.453c-2.959-3.281-5.919-6.563-8.878-9.844c-1.353-1.499-2.705-2.999-4.057-4.498
		c-1.161-1.287-3.354-1.106-4.496,0.074C154.266,222.301,154.446,224.205,155.605,225.49z"/>
	<path fill="#010101" d="M142.136,249.359c1.585-3.039,3.17-6.078,4.754-9.115c2.607-5,5.215-10,7.822-14.999
		c0.718-1.376,1.437-2.753,2.154-4.13c0.801-1.536,0.407-3.442-1.14-4.349c-1.44-0.844-3.549-0.395-4.349,1.141
		c-1.585,3.038-3.17,6.076-4.755,9.115c-2.607,4.999-5.215,9.999-7.822,14.997c-0.718,1.377-1.436,2.754-2.154,4.131
		c-0.801,1.535-0.407,3.443,1.141,4.35C139.227,251.341,141.335,250.894,142.136,249.359z"/>
	<line fill="#010101" x1="147.423" y1="207.021" x2="154.628" y2="223.309"/>
	<polyline fill="#010101" points="142.024,209.41 149.229,225.697 160.027,220.921 152.822,204.633 	"/>
</g>
<g>
	<circle fill="#010101" cx="196.434" cy="191.7" r="5.931"/>
	<g>
		<path fill="#010101" d="M225.083,206.547c-1.807-3.188-3.613-6.378-5.419-9.566c-0.55-0.971-1.636-1.574-2.745-1.574
			c-4.475,0-8.949,0-13.424,0c-1.59,0-3.18,0-4.771,0c-1.616,0-2.313,1.005-3.205,2.04c-0.833,0.966-1.665,1.931-2.498,2.896
			c-1.815,2.106-3.631,4.212-5.447,6.318c0.749-0.311,1.499-0.621,2.248-0.932c-2.755-0.01-5.51-0.02-8.265-0.03
			c-1.733-0.007-3.179,1.451-3.179,3.179c0,1.737,1.446,3.173,3.179,3.179c2.261,0.009,4.521,0.017,6.782,0.025
			c1.33,0.005,2.795,0.159,3.782-0.984c0.499-0.58,0.999-1.159,1.498-1.738c2.451-2.842,4.901-5.685,7.352-8.526
			c-0.749,0.31-1.499,0.62-2.248,0.931c4.475,0,8.949,0,13.424,0c1.59,0,3.181,0,4.771,0c-0.915-0.524-1.83-1.05-2.745-1.574
			c1.807,3.188,3.613,6.378,5.419,9.566c0.853,1.505,2.87,2.007,4.349,1.141C225.451,210.013,225.937,208.056,225.083,206.547z"/>
		<path fill="#010101" d="M209.751,217.659c2.959,3.281,5.919,6.563,8.878,9.844c1.353,1.5,2.705,2.999,4.057,4.499
			c0.85,0.943,2.783,1.268,3.826,0.453c3.565-2.784,7.131-5.566,10.697-8.349c0.73-0.57,1.46-1.141,2.19-1.71
			c0.701-0.547,1.231-1.047,1.463-1.944c0.21-0.813,0.086-1.686-0.34-2.409c-0.427-0.723-1.131-1.253-1.944-1.463
			c-0.726-0.188-1.788-0.146-2.409,0.34c-3.566,2.783-7.131,5.566-10.697,8.351c-0.73,0.569-1.46,1.14-2.19,1.709
			c1.275,0.151,2.551,0.303,3.826,0.453c-2.959-3.281-5.918-6.563-8.878-9.844c-1.352-1.499-2.705-2.999-4.057-4.499
			c-1.161-1.287-3.353-1.105-4.496,0.074C208.412,214.47,208.592,216.374,209.751,217.659z"/>
		<path fill="#010101" d="M196.283,241.527c1.584-3.039,3.169-6.076,4.754-9.115c2.607-5,5.215-9.999,7.822-14.998
			c0.718-1.377,1.436-2.753,2.154-4.13c0.801-1.536,0.407-3.442-1.141-4.349c-1.44-0.844-3.548-0.395-4.349,1.14
			c-1.584,3.039-3.169,6.077-4.754,9.116c-2.607,4.999-5.215,9.998-7.822,14.998c-0.718,1.375-1.437,2.752-2.154,4.129
			c-0.801,1.537-0.407,3.443,1.141,4.35C193.374,243.511,195.482,243.062,196.283,241.527z"/>
		<line fill="#010101" x1="201.569" y1="199.19" x2="208.775" y2="215.478"/>
		<polyline fill="#010101" points="196.17,201.578 203.376,217.866 214.173,213.089 206.968,196.802 		"/>
	</g>
</g>
<g>
	<circle fill="#010101" cx="160.833" cy="263.427" r="5.931"/>
	<g>
		<path fill="#010101" d="M189.481,278.273c-1.807-3.189-3.613-6.377-5.419-9.566c-0.549-0.971-1.636-1.574-2.745-1.574
			c-4.475,0-8.949,0-13.424,0c-1.59,0-3.18,0-4.77,0c-1.617,0-2.313,1.006-3.205,2.039c-0.833,0.967-1.665,1.932-2.498,2.898
			c-1.816,2.105-3.631,4.211-5.447,6.316c0.749-0.311,1.498-0.621,2.248-0.93c-2.755-0.012-5.51-0.021-8.265-0.031
			c-1.733-0.006-3.179,1.451-3.179,3.18c0,1.736,1.446,3.172,3.179,3.178c2.261,0.008,4.521,0.018,6.782,0.025
			c1.329,0.004,2.794,0.16,3.781-0.984c0.5-0.58,0.999-1.158,1.498-1.738c2.451-2.842,4.901-5.684,7.352-8.527
			c-0.75,0.311-1.499,0.621-2.248,0.932c4.475,0,8.949,0,13.424,0c1.59,0,3.181,0,4.771,0c-0.915-0.525-1.83-1.049-2.745-1.574
			c1.806,3.189,3.613,6.377,5.419,9.566c0.853,1.506,2.87,2.008,4.349,1.141C189.849,281.738,190.335,279.781,189.481,278.273z"/>
		<path fill="#010101" d="M174.15,289.386c2.959,3.281,5.918,6.563,8.878,9.844c1.353,1.5,2.705,2.998,4.057,4.498
			c0.85,0.943,2.783,1.268,3.826,0.453c3.566-2.783,7.131-5.566,10.697-8.35c0.73-0.57,1.46-1.141,2.19-1.711
			c0.701-0.545,1.231-1.045,1.463-1.943c0.21-0.813,0.087-1.686-0.34-2.408c-0.426-0.725-1.131-1.254-1.944-1.463
			c-0.726-0.188-1.787-0.146-2.409,0.34c-3.565,2.783-7.131,5.566-10.697,8.35c-0.73,0.57-1.46,1.139-2.19,1.709
			c1.275,0.152,2.55,0.303,3.826,0.453c-2.959-3.281-5.919-6.563-8.878-9.844c-1.353-1.5-2.705-2.998-4.057-4.498
			c-1.161-1.287-3.353-1.105-4.496,0.074C172.811,286.197,172.991,288.101,174.15,289.386z"/>
		<path fill="#010101" d="M160.681,313.253c1.585-3.039,3.17-6.076,4.754-9.115c2.608-5,5.215-9.998,7.822-14.998
			c0.718-1.377,1.437-2.752,2.154-4.129c0.801-1.537,0.407-3.443-1.14-4.35c-1.44-0.844-3.549-0.395-4.349,1.141
			c-1.585,3.039-3.17,6.076-4.755,9.115c-2.607,4.998-5.215,9.998-7.822,14.996c-0.718,1.377-1.436,2.754-2.154,4.131
			c-0.801,1.537-0.407,3.443,1.141,4.35C157.772,315.238,159.88,314.789,160.681,313.253z"/>
		<line fill="#010101" x1="165.968" y1="270.916" x2="173.173" y2="287.205"/>
		<polyline fill="#010101" points="160.569,273.304 167.774,289.593 178.572,284.816 171.367,268.529 		"/>
	</g>
</g>
<g>
	<g>
		<path fill="#C7C7C7" d="M368.479,143.006c-0.427-0.724-1.131-1.253-1.944-1.463c-0.726-0.188-1.788-0.146-2.409,0.34l-10.697,8.35
			c-0.062,0.049-0.123,0.097-0.185,0.145c-2.353-2.608-4.705-5.217-7.058-7.825c-0.262-0.291-0.524-0.582-0.787-0.873l-4.878-11.024
			h5.902c1.509,2.664,3.018,5.327,4.527,7.992c0.853,1.505,2.87,2.007,4.349,1.14c1.509-0.884,1.995-2.841,1.141-4.349
			c-1.807-3.189-3.613-6.378-5.419-9.567c-0.55-0.97-1.637-1.574-2.745-1.574h-14.942c0.864-1.03,1.386-2.358,1.386-3.809
			c0-2.717-1.828-5.006-4.32-5.708h-79.882v11.639h2.191l6.201,14.677l-12.369,30.883h78.467l0.002-0.005
			c1.067-0.036,2.118-0.572,2.631-1.556c1.585-3.038,3.17-6.077,4.754-9.115c2.607-4.999,5.215-9.998,7.822-14.997
			c0.099-0.189,0.198-0.38,0.297-0.569c2.023,2.244,4.047,4.488,6.07,6.731c1.353,1.5,2.705,2.999,4.057,4.498
			c0.478,0.53,1.297,0.864,2.108,0.911l0.005,0.007l-0.005-0.006c0.632,0.036,1.26-0.102,1.717-0.459
			c3.566-2.783,7.131-5.566,10.697-8.35c0.73-0.569,1.46-1.14,2.19-1.71c0.701-0.546,1.231-1.046,1.463-1.943
			C369.028,144.603,368.905,143.729,368.479,143.006z"/>
		<path fill="#B3B2B2" d="M288.264,141.543c-0.726-0.188-1.787-0.146-2.409,0.34l-10.697,8.35c-0.062,0.049-0.123,0.097-0.185,0.145
			c-2.353-2.608-4.705-5.217-7.058-7.825c-0.262-0.291-0.524-0.582-0.787-0.873l-4.877-11.024h5.902
			c1.509,2.664,3.018,5.327,4.527,7.992c0.853,1.505,2.87,2.007,4.349,1.14c1.509-0.884,1.995-2.841,1.141-4.349
			c-1.807-3.189-3.613-6.378-5.419-9.567c-0.55-0.97-1.636-1.574-2.745-1.574h-14.942c0.865-1.03,1.386-2.358,1.386-3.809
			c0-2.717-1.828-5.006-4.32-5.708h-79.882v11.639h2.19l6.201,14.677l-12.369,30.883h78.467l0.002-0.005
			c1.067-0.036,2.118-0.572,2.631-1.556c1.585-3.038,3.17-6.077,4.754-9.115c2.608-4.999,5.215-9.998,7.823-14.997
			c0.099-0.189,0.197-0.38,0.296-0.569c2.023,2.244,4.047,4.488,6.071,6.731c1.352,1.5,2.705,2.999,4.057,4.498
			c0.478,0.53,1.297,0.864,2.109,0.911l0.005,0.007l-0.005-0.006c0.632,0.036,1.26-0.102,1.717-0.459
			c3.565-2.783,7.131-5.566,10.697-8.35c0.73-0.569,1.46-1.14,2.19-1.71c0.7-0.546,1.231-1.046,1.463-1.943
			c0.209-0.813,0.086-1.686-0.34-2.409C289.782,142.282,289.077,141.753,288.264,141.543z"/>
		<path fill="#8B8B8A" d="M209.994,141.543c-0.726-0.188-1.788-0.146-2.409,0.34l-10.697,8.35c-0.062,0.049-0.124,0.097-0.185,0.145
			c-2.353-2.608-4.706-5.217-7.058-7.825c-0.263-0.291-0.525-0.582-0.787-0.873l-4.877-11.024h5.902
			c1.509,2.664,3.018,5.327,4.528,7.992c0.853,1.505,2.87,2.007,4.349,1.14c1.509-0.884,1.995-2.841,1.141-4.349
			c-1.806-3.189-3.613-6.378-5.419-9.567c-0.55-0.97-1.637-1.574-2.745-1.574h-14.942c0.865-1.03,1.386-2.358,1.386-3.809
			c0-2.717-1.828-5.006-4.32-5.708H93.978v11.639h2.19l6.201,14.677L90,171.978h78.467l0.002-0.005
			c1.067-0.036,2.118-0.572,2.631-1.556c1.585-3.038,3.17-6.077,4.754-9.115c2.607-4.999,5.215-9.998,7.823-14.997
			c0.099-0.189,0.197-0.38,0.296-0.569c2.023,2.244,4.047,4.488,6.07,6.731c1.353,1.5,2.706,2.999,4.057,4.498
			c0.478,0.53,1.297,0.864,2.108,0.911l0.006,0.007l-0.005-0.006c0.633,0.036,1.26-0.102,1.717-0.459
			c3.566-2.783,7.131-5.566,10.697-8.35c0.73-0.569,1.46-1.14,2.19-1.71c0.7-0.546,1.231-1.046,1.463-1.943
			c0.21-0.813,0.086-1.686-0.34-2.409S210.806,141.753,209.994,141.543z"/>
		<path fill="#676768" d="M131.723,141.543c-0.726-0.188-1.788-0.146-2.409,0.34l-10.697,8.35c-0.062,0.049-0.123,0.097-0.185,0.145
			c-2.353-2.608-4.705-5.217-7.058-7.825c-0.262-0.291-0.524-0.582-0.787-0.873l-4.878-11.024h5.902
			c1.509,2.664,3.018,5.327,4.527,7.992c0.853,1.505,2.87,2.007,4.349,1.14c1.509-0.884,1.995-2.841,1.141-4.349
			c-1.806-3.189-3.613-6.378-5.419-9.567c-0.55-0.97-1.637-1.574-2.745-1.574H98.523c0.864-1.03,1.386-2.358,1.386-3.809
			c0-2.717-1.828-5.006-4.32-5.708H15.707v11.639h2.191l0.3,0.71h-5.269v33.769h3.239l-4.438,11.081h78.467l0.002-0.005
			c1.067-0.036,2.118-0.572,2.631-1.556c1.585-3.038,3.17-6.077,4.754-9.115c2.607-4.999,5.215-9.998,7.822-14.997
			c0.099-0.189,0.198-0.38,0.297-0.569c2.023,2.244,4.047,4.488,6.07,6.731c1.353,1.5,2.705,2.999,4.057,4.498
			c0.478,0.53,1.297,0.864,2.108,0.911l0.005,0.007l-0.005-0.006c0.632,0.036,1.26-0.102,1.717-0.459
			c3.566-2.783,7.131-5.566,10.697-8.35c0.73-0.569,1.46-1.14,2.19-1.71c0.701-0.546,1.231-1.046,1.463-1.943
			c0.209-0.813,0.086-1.686-0.34-2.409S132.536,141.753,131.723,141.543z"/>
	</g>
	<g>
		<path fill="#010101" d="M49.511,171.978H33.315V152.45c0-2.802-1.472-4.203-4.415-4.203h-7.938v15.581h8.303v8.149H0v-8.149h8.303
			v-40.899H0v-8.149h35.485c6.855,0,10.284,3.153,10.284,9.46v12.304c0,5.741-1.848,8.909-5.542,9.502v0.255
			c3.694,0,5.542,2.222,5.542,6.664v10.864h3.741V171.978z M33.161,135.252v-9.867c0-1.638-0.825-2.456-2.474-2.456h-9.724v17.066
			h8.104C31.795,139.995,33.161,138.415,33.161,135.252z"/>
		<path fill="#010101" d="M81.51,138.644v27.195c0,1.898-0.678,3.396-2.033,4.493s-3.19,1.646-5.504,1.646h-12.7
			c-2.355,0-4.155-0.612-5.401-1.839c-1.187-1.166-1.78-2.757-1.78-4.774v-27.136c0-2.095,0.771-3.687,2.314-4.774
			c1.326-0.949,3.007-1.424,5.045-1.424h12.878C79.117,132.03,81.51,134.235,81.51,138.644z M72.705,164.599v-25.16
			c0-1.144-0.476-1.717-1.427-1.717h-6.836c-1.03,0-1.545,0.593-1.545,1.776v25.16c0,1.086,0.555,1.628,1.665,1.628h6.598
			C72.19,166.286,72.705,165.724,72.705,164.599z"/>
		<path fill="#010101" d="M116.718,132.03v5.691h-20.03c-1.029,0-1.543,0.593-1.543,1.776v25.16c0,1.086,0.554,1.628,1.663,1.628
			h6.594c1.01,0,1.515-0.57,1.515-1.712v-5.876h8.806v7.114c0,1.896-0.678,3.399-2.033,4.505c-1.354,1.107-3.179,1.66-5.473,1.66
			H93.519c-4.787,0-7.18-2.204-7.18-6.613v-27.136c0-2.095,0.761-3.687,2.284-4.774c1.325-0.949,3.006-1.424,5.044-1.424H116.718z"
			/>
		<path fill="#010101" d="M157.232,132.03v5.691h-7.854v28.564h5.262v5.691h-18.398v-5.691h4.295v-11.454h-10.13v11.454h4.224v5.691
			h-18.399v-5.691h5.298v-28.564h-5.298v-5.691h18.399v5.691h-4.224v11.419h10.13v-11.419h-4.295v-5.691H157.232z"/>
		<path fill="#010101" d="M193.555,132.03v5.691h-18.972v11.275h2.756v-2.685h4.259v10.631h-4.259v-2.541h-2.756v11.884h10.166
			v-5.44h5.62v11.132h-30.426v-5.691h5.799v-28.564h-5.799v-5.691H193.555z"/>
		<path fill="#010101" d="M227.079,132.03v5.691h-20.327c-1.127,0-1.691,0.539-1.691,1.616v3.556c0,1.41,0.778,2.449,2.336,3.114
			l13.042,5.633c2.132,0.931,3.198,2.979,3.198,6.146v7.57c0,2.02-0.584,3.612-1.75,4.781c-1.266,1.227-3.076,1.84-5.429,1.84
			H203.79c-2.374,0-4.222-0.548-5.547-1.645c-1.326-1.097-1.988-2.604-1.988-4.521v-7.114h8.807v5.876
			c0,1.142,0.515,1.712,1.545,1.712h6.568c1.129,0,1.694-0.542,1.694-1.628v-3.584c0-1.501-0.687-2.537-2.06-3.109l-13.053-5.627
			c-2.333-0.988-3.501-3.034-3.501-6.137v-7.56c0-4.407,2.403-6.611,7.21-6.611H227.079z"/>
		<path fill="#010101" d="M262.797,132.03v5.691h-12.013v28.564h5.799v5.691h-20.439v-5.691h5.799v-28.564h-6.945v5.405h-5.19
			V132.03H262.797z"/>
		<path fill="#010101" d="M296.35,132.03v5.691h-18.972v11.275h2.756v-2.685h4.26v10.631h-4.26v-2.541h-2.756v11.884h10.166v-5.44
			h5.62v11.132h-30.425v-5.691h5.798v-28.564h-5.798v-5.691H296.35z"/>
		<path fill="#010101" d="M330.443,171.978h-11.312V158.34c0-1.956-1.028-2.935-3.083-2.935h-5.544v10.881h5.798v5.691h-20.438
			v-5.691h5.798v-28.564h-5.798v-5.691h24.782c4.788,0,7.183,2.203,7.183,6.607v8.593c0,4.01-1.291,6.222-3.871,6.636v0.178
			c2.58,0,3.871,1.552,3.871,4.654v7.588h2.613V171.978z M319.024,146.329v-6.892c0-1.144-0.576-1.716-1.728-1.716h-6.792v11.92
			h5.66C318.07,149.642,319.024,148.538,319.024,146.329z"/>
	</g>
</g>
<g>
	<path fill="#010101" d="M117.522,102.511v2.601h-9.291c-0.515,0-0.773,0.246-0.773,0.739v1.625c0,0.645,0.356,1.12,1.068,1.424
		l5.961,2.574c0.974,0.425,1.461,1.362,1.461,2.809v3.46c0,0.923-0.267,1.651-0.8,2.186c-0.578,0.561-1.406,0.841-2.481,0.841h-5.79
		c-1.085,0-1.93-0.25-2.536-0.752c-0.606-0.501-0.909-1.189-0.909-2.065V114.7h4.025v2.686c0,0.521,0.235,0.782,0.707,0.782h3.002
		c0.516,0,0.774-0.247,0.774-0.744v-1.638c0-0.686-0.314-1.16-0.941-1.421l-5.966-2.572c-1.067-0.452-1.6-1.387-1.6-2.805v-3.455
		c0-2.015,1.098-3.021,3.295-3.021H117.522z"/>
	<path fill="#010101" d="M130.559,102.511v2.601h-14.129v-2.601H130.559z M129.06,117.95c0,0.949-0.353,1.672-1.057,2.169
		c-0.605,0.434-1.374,0.65-2.304,0.65h-4.066v5.906h-5.203v-2.601h1.292v-14.742h-1.292v-2.307h5.104v1.946
		c1.167-1.297,2.545-1.946,4.136-1.946c1.112,0,1.961,0.285,2.549,0.854c0.561,0.533,0.841,1.261,0.841,2.182V117.95z
		 M125.133,110.361c0-0.489-0.272-0.733-0.815-0.733c-0.354,0-0.86,0.29-1.521,0.869c-0.543,0.489-0.964,0.941-1.263,1.358v6.232
		c0,0.534,0.222,0.802,0.666,0.802h2.228c0.471,0,0.707-0.271,0.707-0.815V110.361z"/>
	<path fill="#010101" d="M143.25,102.511v2.601h-12.896v-2.601H143.25z M141.709,114.962h-7.428v3.179
		c0,0.499,0.254,0.748,0.763,0.748h2.03c0.472,0,0.708-0.258,0.708-0.773v-1.845h3.927v1.694c0,0.867-0.312,1.552-0.936,2.053
		c-0.624,0.502-1.46,0.752-2.51,0.752h-4.625c-1.076,0-1.899-0.284-2.469-0.854c-0.542-0.524-0.814-1.247-0.814-2.169v-7.888
		c0-0.949,0.353-1.676,1.058-2.182c0.606-0.434,1.375-0.65,2.306-0.65h4.708c2.188,0,3.283,0.97,3.283,2.911V114.962z
		 M137.783,113.407v-3.697c0-0.534-0.218-0.802-0.654-0.802h-2.139c-0.473,0-0.708,0.273-0.708,0.818v3.681H137.783z"/>
	<path fill="#010101" d="M155.943,102.511v2.601h-12.896v-2.601H155.943z M154.402,114.962h-7.428v3.179
		c0,0.499,0.254,0.748,0.763,0.748h2.03c0.472,0,0.708-0.258,0.708-0.773v-1.845h3.927v1.694c0,0.867-0.312,1.552-0.936,2.053
		c-0.624,0.502-1.46,0.752-2.51,0.752h-4.626c-1.076,0-1.899-0.284-2.469-0.854c-0.543-0.524-0.814-1.247-0.814-2.169v-7.888
		c0-0.949,0.353-1.676,1.058-2.182c0.606-0.434,1.375-0.65,2.306-0.65h4.707c2.189,0,3.283,0.97,3.283,2.911V114.962z
		 M150.475,113.407v-3.697c0-0.534-0.218-0.802-0.654-0.802h-2.139c-0.472,0-0.708,0.273-0.708,0.818v3.681H150.475z"/>
	<path fill="#010101" d="M168.245,120.77h-9.208c-1.076,0-1.898-0.284-2.468-0.854c-0.542-0.524-0.813-1.247-0.813-2.169v-7.888
		c0-0.949,0.352-1.676,1.057-2.182c0.605-0.434,1.374-0.65,2.304-0.65h4.066v-1.915h-1.113v-2.601h5.04v15.657h1.134V120.77z
		 M160.795,102.511v2.601h-5.039v-2.601H160.795z M163.609,109.71c0-0.535-0.223-0.802-0.669-0.802h-2.145
		c-0.458,0-0.687,0.272-0.687,0.816v8.417c0,0.498,0.253,0.748,0.76,0.748h2.022c0.479,0,0.719-0.24,0.719-0.721V109.71z"/>
	<path fill="#010101" d="M182.344,102.511v2.601h-13.031v-2.601H182.344z M180.831,114.52h-3.976v-4.471
		c0-0.181-0.013-0.296-0.041-0.346c-0.027-0.05-0.086-0.075-0.176-0.075c-0.234,0-0.641,0.303-1.219,0.907
		c-0.397,0.406-0.731,0.835-1.002,1.286v6.347h1.26v2.602h-6.364v-2.602h1.309v-8.834h-1.309v-2.307h5.104v1.946
		c0.371-0.412,0.89-0.81,1.559-1.194c0.858-0.501,1.645-0.751,2.359-0.751c0.769,0,1.376,0.206,1.824,0.616
		c0.447,0.411,0.671,0.96,0.671,1.646V114.52z"/>
	<path fill="#010101" d="M196.636,102.511v2.601H182.13v-2.601H196.636z M194.76,117.747c0,2.016-1.065,3.022-3.197,3.022h-4.768
		c-1.084,0-1.917-0.275-2.5-0.826s-0.874-1.283-0.874-2.195v-8.415h-1.292v-2.307h5.219v11.116c0,0.497,0.255,0.746,0.767,0.746
		h2.005c0.476,0,0.713-0.244,0.713-0.732v-8.823h-1.293v-2.307h5.219V117.747z"/>
	<path fill="#010101" d="M209.925,102.511v2.601h-13.52v-2.601H209.925z M208.25,120.77h-3.976v-10.737
		c0-0.181-0.013-0.296-0.041-0.346c-0.027-0.05-0.085-0.075-0.175-0.075c-0.342,0-0.859,0.348-1.551,1.044
		c-0.467,0.47-0.8,0.877-0.998,1.221v6.292h1.26v2.602h-6.365v-2.602h1.309v-8.851h-1.309v-2.307h5.105v1.962
		c0.378-0.415,0.942-0.821,1.691-1.218c0.93-0.497,1.783-0.745,2.559-0.745c0.767,0,1.374,0.206,1.82,0.617
		c0.447,0.412,0.67,0.96,0.67,1.647V120.77z"/>
	<path fill="#010101" d="M222.603,102.511v2.601h-12.882v-2.601H222.603z M221.059,111.46h-3.91v-1.765
		c0-0.524-0.231-0.787-0.692-0.787h-2.049c-0.506,0-0.76,0.249-0.76,0.747v1.276c0,0.652,0.327,1.05,0.98,1.195l4.125,0.926
		c1.538,0.343,2.307,1.266,2.307,2.767v1.926c0,2.017-1.144,3.024-3.431,3.024h-4.448c-1.085,0-1.933-0.253-2.543-0.759
		c-0.61-0.506-0.916-1.196-0.916-2.073v-1.585h3.927v1.705c0,0.532,0.231,0.798,0.695,0.798h2.043c0.508,0,0.763-0.248,0.763-0.745
		v-1.017c0-0.813-0.315-1.292-0.946-1.437l-4.394-1.003c-1.392-0.316-2.088-1.215-2.088-2.696v-1.91
		c0-0.921,0.271-1.648,0.813-2.181c0.579-0.56,1.406-0.84,2.482-0.84h4.611c1.058,0,1.894,0.249,2.509,0.746
		c0.615,0.497,0.922,1.184,0.922,2.061V111.46z"/>
</g>
<g>
	<path fill="#010101" d="M61.029,83.793H44.833V64.265c0-2.801-1.472-4.203-4.415-4.203h-7.938v15.581h8.303v8.15H11.518v-8.15
		h8.303v-40.9h-8.303v-8.149h35.485c6.855,0,10.284,3.154,10.284,9.46v12.303c0,5.742-1.848,8.91-5.542,9.503v0.254
		c3.694,0,5.542,2.222,5.542,6.664v10.865h3.741V83.793z M44.679,47.067v-9.868c0-1.637-0.825-2.456-2.474-2.456h-9.724V51.81h8.104
		C43.313,51.81,44.679,50.23,44.679,47.067z"/>
	<path fill="#010101" d="M93.028,50.458v27.195c0,1.898-0.678,3.396-2.033,4.493c-1.355,1.097-3.19,1.646-5.504,1.646h-12.7
		c-2.355,0-4.155-0.613-5.401-1.839c-1.187-1.166-1.78-2.757-1.78-4.774V50.044c0-2.095,0.771-3.688,2.314-4.775
		c1.326-0.949,3.007-1.423,5.045-1.423h12.878C90.635,43.846,93.028,46.05,93.028,50.458z M84.223,76.414v-25.16
		c0-1.144-0.476-1.717-1.427-1.717H75.96c-1.03,0-1.545,0.592-1.545,1.775v25.161c0,1.085,0.555,1.628,1.665,1.628h6.598
		C83.708,78.101,84.223,77.539,84.223,76.414z"/>
	<path fill="#010101" d="M128.236,43.846v5.691h-20.03c-1.029,0-1.543,0.592-1.543,1.775v25.161c0,1.085,0.554,1.628,1.663,1.628
		h6.594c1.01,0,1.515-0.57,1.515-1.712v-5.876h8.806v7.115c0,1.896-0.678,3.399-2.033,4.505c-1.354,1.107-3.179,1.66-5.473,1.66
		h-12.698c-4.786,0-7.18-2.204-7.18-6.614V50.044c0-2.095,0.761-3.688,2.284-4.775c1.325-0.949,3.006-1.423,5.044-1.423H128.236z"/>
	<path fill="#010101" d="M168.75,43.846v5.691h-7.854v28.564h5.262v5.692H147.76v-5.692h4.295V66.647h-10.13v11.454h4.224v5.692
		H127.75v-5.692h5.298V49.537h-5.298v-5.691h18.399v5.691h-4.224v11.419h10.13V49.537h-4.295v-5.691H168.75z"/>
	<path fill="#010101" d="M205.073,43.846v5.691h-18.972v11.276h2.756v-2.686h4.259v10.632h-4.259v-2.541h-2.756v11.883h10.166V72.66
		h5.62v11.133H171.46v-5.692h5.799V49.537h-5.799v-5.691H205.073z"/>
	<path fill="#010101" d="M238.597,43.846v5.691H218.27c-1.127,0-1.691,0.538-1.691,1.616v3.555c0,1.41,0.778,2.449,2.336,3.115
		l13.042,5.633c2.132,0.931,3.198,2.979,3.198,6.145v7.571c0,2.02-0.584,3.612-1.75,4.781c-1.266,1.227-3.076,1.841-5.429,1.841
		h-12.668c-2.374,0-4.222-0.548-5.547-1.646c-1.325-1.097-1.988-2.603-1.988-4.52v-7.115h8.807v5.876
		c0,1.142,0.515,1.712,1.545,1.712h6.568c1.129,0,1.694-0.542,1.694-1.628v-3.583c0-1.501-0.687-2.537-2.06-3.109l-13.053-5.628
		c-2.333-0.987-3.501-3.033-3.501-6.136v-7.559c0-4.407,2.403-6.611,7.21-6.611H238.597z"/>
	<path fill="#010101" d="M274.315,43.846v5.691h-12.013v28.564h5.799v5.692h-20.439v-5.692h5.799V49.537h-6.944v5.405h-5.19V43.846
		H274.315z"/>
	<path fill="#010101" d="M307.868,43.846v5.691h-18.972v11.276h2.756v-2.686h4.26v10.632h-4.26v-2.541h-2.756v11.883h10.166V72.66
		h5.62v11.133h-30.425v-5.692h5.798V49.537h-5.798v-5.691H307.868z"/>
	<path fill="#010101" d="M341.961,83.793h-11.312V70.154c0-1.956-1.028-2.935-3.083-2.935h-5.544v10.881h5.798v5.692h-20.438v-5.692
		h5.798V49.537h-5.798v-5.691h24.783c4.788,0,7.182,2.202,7.182,6.606v8.593c0,4.01-1.291,6.222-3.871,6.636v0.178
		c2.58,0,3.871,1.552,3.871,4.654v7.588h2.613V83.793z M330.542,58.144v-6.892c0-1.143-0.576-1.715-1.728-1.715h-6.792v11.92h5.66
		C329.588,61.457,330.542,60.353,330.542,58.144z"/>
</g>
<g>
	<path fill="#010101" d="M64.839,0v3.371H52.802c-0.667,0-1.001,0.319-1.001,0.957v2.105c0,0.835,0.461,1.451,1.384,1.845
		l7.724,3.335c1.263,0.551,1.894,1.764,1.894,3.64v4.483c0,1.195-0.346,2.139-1.037,2.83c-0.749,0.727-1.821,1.091-3.215,1.091
		h-7.502c-1.406,0-2.5-0.325-3.285-0.975c-0.785-0.649-1.177-1.542-1.177-2.677v-4.213H51.8v3.48c0,0.676,0.305,1.014,0.915,1.014
		h3.89c0.668,0,1.003-0.321,1.003-0.965V17.2c0-0.889-0.407-1.502-1.22-1.842l-7.73-3.333c-1.382-0.584-2.073-1.796-2.073-3.634
		V3.915c0-2.61,1.423-3.915,4.269-3.915H64.839z"/>
	<path fill="#010101" d="M81.731,0v3.371H63.424V0H81.731z M79.789,20.005c0,1.229-0.457,2.166-1.37,2.81
		c-0.784,0.563-1.78,0.843-2.985,0.843h-5.269v7.653h-6.741V27.94h1.675V8.839h-1.675V5.851h6.614v2.522
		c1.511-1.681,3.297-2.522,5.359-2.522c1.44,0,2.542,0.369,3.303,1.106c0.726,0.691,1.089,1.633,1.089,2.827V20.005z M74.701,10.171
		c0-0.633-0.352-0.949-1.056-0.949c-0.458,0-1.115,0.375-1.971,1.125c-0.704,0.634-1.25,1.22-1.637,1.76v8.075
		c0,0.692,0.287,1.038,0.862,1.038h2.886c0.61,0,0.915-0.352,0.915-1.056V10.171z"/>
	<path fill="#010101" d="M98.175,0v3.371H81.467V0H98.175z M96.179,16.132h-9.624v4.119c0,0.646,0.33,0.968,0.988,0.968h2.63
		c0.612,0,0.918-0.333,0.918-1.001v-2.391h5.087v2.195c0,1.125-0.404,2.011-1.213,2.661s-1.892,0.975-3.251,0.975h-5.994
		c-1.395,0-2.461-0.369-3.199-1.106c-0.703-0.679-1.055-1.616-1.055-2.81V9.521c0-1.229,0.457-2.172,1.371-2.828
		c0.785-0.562,1.781-0.843,2.988-0.843h6.099c2.835,0,4.253,1.257,4.253,3.772V16.132z M91.091,14.118v-4.79
		c0-0.693-0.283-1.04-0.847-1.04h-2.771c-0.612,0-0.918,0.354-0.918,1.06v4.77H91.091z"/>
	<path fill="#010101" d="M114.621,0v3.371H97.912V0H114.621z M112.624,16.132H103v4.119c0,0.646,0.33,0.968,0.989,0.968h2.63
		c0.612,0,0.918-0.333,0.918-1.001v-2.391h5.087v2.195c0,1.125-0.404,2.011-1.213,2.661c-0.808,0.65-1.892,0.975-3.251,0.975h-5.994
		c-1.394,0-2.461-0.369-3.199-1.106c-0.703-0.679-1.055-1.616-1.055-2.81V9.521c0-1.229,0.457-2.172,1.371-2.828
		c0.785-0.562,1.781-0.843,2.988-0.843h6.099c2.835,0,4.253,1.257,4.253,3.772V16.132z M107.536,14.118v-4.79
		c0-0.693-0.283-1.04-0.847-1.04h-2.771c-0.612,0-0.918,0.354-0.918,1.06v4.77H107.536z"/>
	<path fill="#010101" d="M130.559,23.658H118.63c-1.395,0-2.46-0.369-3.198-1.106c-0.703-0.679-1.054-1.616-1.054-2.81V9.521
		c0-1.229,0.457-2.172,1.37-2.828c0.784-0.562,1.779-0.843,2.985-0.843h5.269v-2.48h-1.441V0h6.529v20.287h1.47V23.658z M120.907,0
		v3.371h-6.529V0H120.907z M124.553,9.328c0-0.693-0.289-1.04-0.867-1.04h-2.779c-0.593,0-0.89,0.352-0.89,1.057V20.25
		c0,0.646,0.328,0.969,0.985,0.969h2.62c0.621,0,0.932-0.311,0.932-0.933V9.328z"/>
	<path fill="#010101" d="M148.827,0v3.371h-16.884V0H148.827z M146.867,15.56h-5.151V9.767c0-0.234-0.018-0.384-0.053-0.449
		c-0.035-0.065-0.111-0.097-0.229-0.097c-0.304,0-0.831,0.392-1.579,1.175c-0.515,0.526-0.948,1.082-1.298,1.666v8.225h1.632v3.371
		h-8.246v-3.371h1.696V8.839h-1.696V5.851h6.614v2.522c0.48-0.533,1.154-1.049,2.021-1.548c1.112-0.649,2.131-0.974,3.057-0.974
		c0.996,0,1.783,0.267,2.363,0.799c0.58,0.532,0.87,1.243,0.87,2.133V15.56z"/>
	<path fill="#010101" d="M167.345,0v3.371H148.55V0H167.345z M164.915,19.741c0,2.611-1.38,3.917-4.142,3.917h-6.178
		c-1.404,0-2.483-0.357-3.238-1.071c-0.755-0.714-1.132-1.662-1.132-2.844V8.839h-1.675V5.851h6.762v14.402
		c0,0.645,0.332,0.967,0.994,0.967h2.598c0.616,0,0.924-0.316,0.924-0.949V8.839h-1.674V5.851h6.762V19.741z"/>
	<path fill="#010101" d="M184.563,0v3.371h-17.516V0H184.563z M182.394,23.658h-5.151V9.745c0-0.234-0.018-0.383-0.053-0.448
		c-0.035-0.064-0.111-0.097-0.227-0.097c-0.443,0-1.113,0.451-2.01,1.353c-0.606,0.609-1.037,1.136-1.293,1.582v8.152h1.632v3.371
		h-8.246v-3.371h1.696V8.818h-1.696V5.83h6.614v2.543c0.491-0.538,1.222-1.064,2.192-1.579c1.205-0.643,2.31-0.964,3.315-0.964
		c0.994,0,1.78,0.267,2.359,0.799c0.579,0.533,0.868,1.244,0.868,2.134V23.658z"/>
	<path fill="#010101" d="M200.99,0v3.371h-16.69V0H200.99z M198.989,11.596h-5.066V9.309c0-0.68-0.299-1.02-0.897-1.02h-2.655
		c-0.656,0-0.984,0.323-0.984,0.968v1.654c0,0.844,0.423,1.36,1.27,1.548l5.344,1.2c1.992,0.445,2.988,1.64,2.988,3.584v2.496
		c0,2.613-1.482,3.92-4.446,3.92h-5.764c-1.406,0-2.504-0.328-3.294-0.983c-0.792-0.656-1.186-1.551-1.186-2.686v-2.054h5.087v2.208
		c0,0.69,0.3,1.035,0.9,1.035h2.647c0.659,0,0.989-0.322,0.989-0.966v-1.317c0-1.053-0.409-1.674-1.226-1.861l-5.692-1.299
		c-1.804-0.409-2.706-1.574-2.706-3.493V9.766c0-1.193,0.351-2.136,1.054-2.827c0.75-0.725,1.822-1.088,3.216-1.088h5.974
		c1.371,0,2.454,0.323,3.251,0.967c0.796,0.644,1.195,1.534,1.195,2.67V11.596z"/>
</g>
<g>
	<g>
		<path fill="#0076A3" d="M732.585,323.481c-0.427-0.724-1.132-1.254-1.944-1.464c-0.726-0.187-1.787-0.145-2.409,0.34
			l-10.696,8.351c-0.063,0.048-0.124,0.096-0.185,0.145c-2.354-2.608-4.706-5.218-7.058-7.826c-0.263-0.29-0.525-0.581-0.787-0.872
			l-4.878-11.025h5.902c1.509,2.664,3.018,5.328,4.527,7.992c0.853,1.506,2.87,2.007,4.349,1.141
			c1.509-0.884,1.995-2.841,1.141-4.349c-1.806-3.189-3.612-6.379-5.419-9.567c-0.55-0.971-1.637-1.574-2.745-1.574h-14.941
			c0.864-1.03,1.385-2.358,1.385-3.81c0-2.717-1.827-5.005-4.319-5.707h-79.882v11.639h2.19l6.2,14.677l-12.368,30.882h78.467
			l0.002-0.004c1.067-0.037,2.118-0.572,2.631-1.557c1.585-3.038,3.17-6.076,4.755-9.115c2.607-4.998,5.215-9.998,7.822-14.997
			c0.099-0.189,0.197-0.379,0.297-0.568c2.022,2.244,4.047,4.487,6.07,6.73c1.353,1.5,2.705,3,4.057,4.499
			c0.478,0.53,1.297,0.864,2.108,0.911l0.006,0.006l-0.005-0.006c0.633,0.037,1.26-0.102,1.717-0.458
			c3.565-2.783,7.131-5.566,10.697-8.35c0.729-0.57,1.46-1.141,2.189-1.71c0.701-0.547,1.231-1.047,1.464-1.943
			C733.135,325.077,733.011,324.204,732.585,323.481z"/>
		<path fill="#0084B6" d="M652.371,322.017c-0.726-0.187-1.787-0.145-2.409,0.34l-10.697,8.351
			c-0.062,0.048-0.123,0.096-0.185,0.145c-2.353-2.608-4.705-5.218-7.058-7.826c-0.262-0.29-0.524-0.581-0.786-0.872l-4.878-11.025
			h5.902c1.509,2.664,3.018,5.328,4.527,7.992c0.853,1.506,2.869,2.007,4.349,1.141c1.509-0.884,1.995-2.841,1.141-4.349
			c-1.807-3.189-3.612-6.379-5.419-9.567c-0.55-0.971-1.637-1.574-2.745-1.574H619.17c0.864-1.03,1.386-2.358,1.386-3.81
			c0-2.717-1.827-5.005-4.319-5.707h-79.883v11.639h2.191l6.2,14.677l-12.368,30.882h78.467l0.002-0.004
			c1.067-0.037,2.117-0.572,2.631-1.557c1.585-3.038,3.17-6.076,4.755-9.115c2.607-4.998,5.215-9.998,7.822-14.997
			c0.099-0.189,0.197-0.379,0.297-0.568c2.022,2.244,4.046,4.487,6.07,6.73c1.353,1.5,2.705,3,4.057,4.499
			c0.478,0.53,1.297,0.864,2.108,0.911l0.006,0.006l-0.005-0.006c0.632,0.037,1.26-0.102,1.717-0.458
			c3.565-2.783,7.131-5.566,10.696-8.35c0.73-0.57,1.461-1.141,2.19-1.71c0.701-0.547,1.231-1.047,1.464-1.943
			c0.209-0.813,0.086-1.687-0.34-2.409C653.888,322.757,653.183,322.227,652.371,322.017z"/>
		<path fill="#0092C8" d="M574.1,322.017c-0.727-0.187-1.787-0.145-2.409,0.34l-10.697,8.351c-0.062,0.048-0.123,0.096-0.185,0.145
			c-2.353-2.608-4.705-5.218-7.058-7.826c-0.262-0.29-0.524-0.581-0.787-0.872l-4.877-11.025h5.902
			c1.509,2.664,3.018,5.328,4.527,7.992c0.853,1.506,2.869,2.007,4.349,1.141c1.509-0.884,1.995-2.841,1.141-4.349
			c-1.807-3.189-3.612-6.379-5.419-9.567c-0.55-0.971-1.637-1.574-2.745-1.574H540.9c0.864-1.03,1.386-2.358,1.386-3.81
			c0-2.717-1.827-5.005-4.319-5.707h-79.883v11.639h2.191l6.2,14.677l-12.368,30.882h78.467l0.002-0.004
			c1.066-0.037,2.117-0.572,2.631-1.557c1.585-3.038,3.17-6.076,4.754-9.115c2.608-4.998,5.216-9.998,7.823-14.997
			c0.099-0.189,0.197-0.379,0.296-0.568c2.023,2.244,4.047,4.487,6.071,6.73c1.352,1.5,2.705,3,4.057,4.499
			c0.478,0.53,1.297,0.864,2.108,0.911l0.006,0.006l-0.005-0.006c0.632,0.037,1.26-0.102,1.717-0.458
			c3.565-2.783,7.131-5.566,10.696-8.35c0.73-0.57,1.461-1.141,2.19-1.71c0.7-0.547,1.231-1.047,1.464-1.943
			c0.209-0.813,0.086-1.687-0.341-2.409C575.618,322.757,574.913,322.227,574.1,322.017z"/>
		<path fill="#00ADEF" d="M495.83,322.017c-0.727-0.187-1.788-0.145-2.409,0.34l-10.697,8.351c-0.062,0.048-0.123,0.096-0.185,0.145
			c-2.353-2.608-4.705-5.218-7.058-7.826c-0.263-0.29-0.524-0.581-0.787-0.872l-4.877-11.025h5.901
			c1.51,2.664,3.019,5.328,4.528,7.992c0.853,1.506,2.869,2.007,4.349,1.141c1.509-0.884,1.995-2.841,1.141-4.349
			c-1.807-3.189-3.613-6.379-5.419-9.567c-0.551-0.971-1.637-1.574-2.745-1.574h-14.942c0.864-1.03,1.386-2.358,1.386-3.81
			c0-2.717-1.828-5.005-4.32-5.707h-79.882v11.639h2.19l0.3,0.709h-5.269v33.77h3.239l-4.438,11.08h78.467l0.002-0.004
			c1.068-0.037,2.118-0.572,2.632-1.557c1.585-3.038,3.17-6.076,4.755-9.115c2.607-4.998,5.215-9.998,7.822-14.997
			c0.099-0.189,0.197-0.379,0.296-0.568c2.023,2.244,4.047,4.487,6.07,6.73c1.353,1.5,2.705,3,4.058,4.499
			c0.478,0.53,1.297,0.864,2.108,0.911l0.006,0.006l-0.006-0.006c0.633,0.037,1.261-0.102,1.717-0.458
			c3.566-2.783,7.132-5.566,10.697-8.35c0.73-0.57,1.46-1.141,2.19-1.71c0.7-0.547,1.231-1.047,1.463-1.943
			c0.21-0.813,0.087-1.687-0.34-2.409C497.347,322.757,496.642,322.227,495.83,322.017z"/>
	</g>
	<g>
		<path fill="#010101" d="M413.617,352.452h-16.195v-19.526c0-2.802-1.473-4.203-4.414-4.203h-7.938v15.581h8.304v8.148h-29.266
			v-8.148h8.303v-40.9h-8.303v-8.148h35.484c6.855,0,10.284,3.153,10.284,9.46v12.303c0,5.742-1.847,8.909-5.542,9.503v0.254
			c3.695,0,5.542,2.222,5.542,6.664v10.865h3.741V352.452z M397.267,315.727v-9.867c0-1.638-0.824-2.457-2.474-2.457h-9.725v17.067
			h8.104C395.902,320.47,397.267,318.89,397.267,315.727z"/>
		<path fill="#010101" d="M445.617,319.119v27.195c0,1.897-0.678,3.396-2.033,4.493c-1.355,1.096-3.189,1.645-5.504,1.645h-12.7
			c-2.354,0-4.155-0.613-5.401-1.838c-1.187-1.166-1.78-2.758-1.78-4.774v-27.136c0-2.095,0.771-3.688,2.314-4.775
			c1.325-0.948,3.007-1.423,5.045-1.423h12.878C443.222,312.505,445.617,314.71,445.617,319.119z M436.812,345.074v-25.16
			c0-1.144-0.477-1.717-1.428-1.717h-6.836c-1.029,0-1.545,0.593-1.545,1.775v25.161c0,1.086,0.555,1.628,1.664,1.628h6.598
			C436.296,346.761,436.812,346.199,436.812,345.074z"/>
		<path fill="#010101" d="M480.825,312.505v5.691h-20.03c-1.029,0-1.543,0.593-1.543,1.775v25.161c0,1.086,0.555,1.628,1.663,1.628
			h6.595c1.009,0,1.515-0.57,1.515-1.712v-5.877h8.805v7.115c0,1.896-0.678,3.398-2.032,4.504c-1.354,1.107-3.179,1.66-5.474,1.66
			h-12.697c-4.786,0-7.18-2.203-7.18-6.612v-27.136c0-2.095,0.761-3.688,2.284-4.775c1.324-0.948,3.006-1.423,5.044-1.423H480.825z"
			/>
		<path fill="#010101" d="M521.338,312.505v5.691h-7.854v28.564h5.263v5.69h-18.398v-5.69h4.295v-11.454h-10.13v11.454h4.224v5.69
			h-18.398v-5.69h5.298v-28.564h-5.298v-5.691h18.398v5.691h-4.224v11.419h10.13v-11.419h-4.295v-5.691H521.338z"/>
		<path fill="#010101" d="M557.662,312.505v5.691h-18.973v11.275h2.757v-2.686h4.259v10.632h-4.259v-2.541h-2.757v11.884h10.166
			v-5.441h5.62v11.132h-30.426v-5.69h5.799v-28.564h-5.799v-5.691H557.662z"/>
		<path fill="#010101" d="M591.185,312.505v5.691h-20.326c-1.128,0-1.691,0.538-1.691,1.616v3.555c0,1.41,0.778,2.449,2.336,3.115
			l13.043,5.633c2.132,0.931,3.198,2.979,3.198,6.145v7.571c0,2.02-0.584,3.612-1.751,4.78c-1.266,1.227-3.075,1.84-5.429,1.84
			h-12.669c-2.373,0-4.222-0.547-5.547-1.645c-1.325-1.097-1.988-2.603-1.988-4.52v-7.115h8.807v5.877
			c0,1.142,0.515,1.712,1.545,1.712h6.568c1.129,0,1.693-0.542,1.693-1.629v-3.583c0-1.501-0.687-2.537-2.059-3.109l-13.054-5.628
			c-2.334-0.987-3.501-3.033-3.501-6.137v-7.559c0-4.407,2.403-6.611,7.21-6.611H591.185z"/>
		<path fill="#010101" d="M626.904,312.505v5.691H614.89v28.564h5.799v5.69H600.25v-5.69h5.8v-28.564h-6.944v5.405h-5.19v-11.097
			H626.904z"/>
		<path fill="#010101" d="M660.457,312.505v5.691h-18.972v11.275h2.756v-2.686h4.26v10.632h-4.26v-2.541h-2.756v11.884h10.166
			v-5.441h5.619v11.132h-30.425v-5.69h5.798v-28.564h-5.798v-5.691H660.457z"/>
		<path fill="#010101" d="M694.549,352.452h-11.312v-13.638c0-1.956-1.028-2.935-3.083-2.935h-5.543v10.882h5.798v5.69h-20.438
			v-5.69h5.798v-28.564h-5.798v-5.691h24.782c4.788,0,7.183,2.203,7.183,6.606v8.593c0,4.011-1.291,6.223-3.871,6.637v0.178
			c2.58,0,3.871,1.552,3.871,4.654v7.588h2.613V352.452z M683.13,326.803v-6.892c0-1.143-0.576-1.715-1.728-1.715h-6.791v11.92
			h5.659C682.176,330.117,683.13,329.012,683.13,326.803z"/>
	</g>
	<g>
		<path fill="#010101" d="M417.427,268.66v3.371H405.39c-0.668,0-1.002,0.319-1.002,0.957v2.105c0,0.835,0.462,1.451,1.385,1.845
			l7.724,3.335c1.263,0.551,1.894,1.764,1.894,3.64v4.484c0,1.195-0.346,2.139-1.037,2.83c-0.749,0.727-1.82,1.091-3.215,1.091
			h-7.502c-1.406,0-2.501-0.325-3.285-0.975c-0.785-0.649-1.178-1.542-1.178-2.677v-4.213h5.215v3.48
			c0,0.676,0.306,1.015,0.916,1.015h3.89c0.669,0,1.003-0.322,1.003-0.965v-2.123c0-0.889-0.406-1.503-1.219-1.842l-7.73-3.333
			c-1.383-0.585-2.074-1.796-2.074-3.634v-4.477c0-2.61,1.424-3.915,4.27-3.915H417.427z"/>
		<path fill="#010101" d="M434.319,268.66v3.371h-18.307v-3.371H434.319z M432.376,288.665c0,1.23-0.456,2.166-1.369,2.81
			c-0.784,0.563-1.779,0.844-2.985,0.844h-5.269v7.653h-6.741V296.6h1.675V277.5h-1.675v-2.989h6.614v2.522
			c1.511-1.681,3.297-2.522,5.358-2.522c1.44,0,2.542,0.369,3.303,1.106c0.726,0.691,1.089,1.633,1.089,2.827V288.665z
			 M427.29,278.831c0-0.633-0.353-0.95-1.056-0.95c-0.458,0-1.115,0.375-1.971,1.126c-0.705,0.633-1.25,1.22-1.637,1.76v8.075
			c0,0.691,0.287,1.037,0.861,1.037h2.887c0.61,0,0.915-0.352,0.915-1.056V278.831z"/>
		<path fill="#010101" d="M450.763,268.66v3.371h-16.707v-3.371H450.763z M448.767,284.792h-9.624v4.119
			c0,0.646,0.329,0.968,0.988,0.968h2.63c0.612,0,0.918-0.334,0.918-1.001v-2.391h5.088v2.194c0,1.125-0.404,2.012-1.213,2.661
			s-1.893,0.975-3.252,0.975h-5.993c-1.395,0-2.461-0.369-3.198-1.106c-0.704-0.68-1.055-1.615-1.055-2.811v-10.22
			c0-1.229,0.456-2.171,1.37-2.827c0.785-0.562,1.781-0.843,2.987-0.843h6.1c2.836,0,4.254,1.257,4.254,3.772V284.792z
			 M443.679,282.778v-4.79c0-0.693-0.282-1.04-0.848-1.04h-2.771c-0.612,0-0.918,0.354-0.918,1.06v4.77H443.679z"/>
		<path fill="#010101" d="M467.208,268.66v3.371H450.5v-3.371H467.208z M465.212,284.792h-9.624v4.119
			c0,0.646,0.329,0.968,0.988,0.968h2.63c0.611,0,0.918-0.334,0.918-1.001v-2.391h5.088v2.194c0,1.125-0.404,2.012-1.213,2.661
			s-1.893,0.975-3.252,0.975h-5.994c-1.395,0-2.461-0.369-3.199-1.106c-0.703-0.68-1.054-1.615-1.054-2.811v-10.22
			c0-1.229,0.456-2.171,1.37-2.827c0.785-0.562,1.781-0.843,2.988-0.843h6.1c2.836,0,4.254,1.257,4.254,3.772V284.792z
			 M460.125,282.778v-4.79c0-0.693-0.283-1.04-0.848-1.04h-2.771c-0.611,0-0.917,0.354-0.917,1.06v4.77H460.125z"/>
		<path fill="#010101" d="M483.147,292.318h-11.929c-1.395,0-2.46-0.369-3.198-1.106c-0.702-0.68-1.054-1.615-1.054-2.811v-10.22
			c0-1.229,0.456-2.171,1.37-2.827c0.784-0.562,1.779-0.843,2.984-0.843h5.27v-2.48h-1.441v-3.371h6.528v20.288h1.47V292.318z
			 M473.496,268.66v3.371h-6.529v-3.371H473.496z M477.141,277.988c0-0.693-0.289-1.04-0.867-1.04h-2.778
			c-0.594,0-0.891,0.352-0.891,1.057v10.905c0,0.646,0.328,0.969,0.984,0.969h2.62c0.621,0,0.932-0.311,0.932-0.932V277.988z"/>
		<path fill="#010101" d="M501.416,268.66v3.371h-16.884v-3.371H501.416z M499.456,284.22h-5.152v-5.793
			c0-0.235-0.017-0.384-0.052-0.449c-0.035-0.065-0.111-0.097-0.229-0.097c-0.304,0-0.831,0.392-1.579,1.175
			c-0.515,0.526-0.947,1.082-1.298,1.667v8.225h1.632v3.37h-8.246v-3.37h1.695V277.5h-1.695v-2.989h6.614v2.522
			c0.479-0.534,1.153-1.049,2.02-1.548c1.112-0.649,2.132-0.974,3.057-0.974c0.996,0,1.783,0.266,2.363,0.799
			c0.579,0.533,0.87,1.243,0.87,2.133V284.22z"/>
		<path fill="#010101" d="M519.933,268.66v3.371h-18.795v-3.371H519.933z M517.503,288.401c0,2.611-1.381,3.917-4.143,3.917h-6.178
			c-1.404,0-2.483-0.357-3.238-1.071c-0.755-0.715-1.132-1.662-1.132-2.844V277.5h-1.675v-2.989h6.762v14.402
			c0,0.645,0.331,0.967,0.994,0.967h2.598c0.616,0,0.924-0.315,0.924-0.948V277.5h-1.675v-2.989h6.763V288.401z"/>
		<path fill="#010101" d="M537.151,268.66v3.371h-17.517v-3.371H537.151z M534.982,292.318h-5.151v-13.913
			c0-0.234-0.018-0.383-0.053-0.448c-0.035-0.064-0.11-0.097-0.227-0.097c-0.442,0-1.113,0.451-2.01,1.354
			c-0.605,0.608-1.037,1.136-1.293,1.582v8.153h1.632v3.37h-8.246v-3.37h1.696v-11.469h-1.696v-2.989h6.614v2.543
			c0.49-0.538,1.222-1.064,2.191-1.579c1.205-0.643,2.31-0.964,3.315-0.964c0.993,0,1.78,0.267,2.358,0.799
			c0.579,0.533,0.868,1.244,0.868,2.134V292.318z"/>
		<path fill="#010101" d="M553.578,268.66v3.371h-16.69v-3.371H553.578z M551.578,280.255h-5.066v-2.287
			c0-0.68-0.299-1.02-0.896-1.02h-2.655c-0.656,0-0.984,0.323-0.984,0.967v1.654c0,0.845,0.423,1.361,1.27,1.548l5.345,1.2
			c1.992,0.445,2.988,1.64,2.988,3.585v2.496c0,2.613-1.481,3.92-4.445,3.92h-5.765c-1.405,0-2.504-0.328-3.294-0.983
			c-0.791-0.656-1.187-1.551-1.187-2.686v-2.055h5.088v2.209c0,0.689,0.3,1.034,0.9,1.034h2.647c0.659,0,0.988-0.322,0.988-0.966
			v-1.316c0-1.054-0.409-1.674-1.226-1.862l-5.692-1.299c-1.804-0.409-2.706-1.574-2.706-3.493v-2.475
			c0-1.194,0.352-2.136,1.055-2.827c0.75-0.725,1.821-1.088,3.216-1.088h5.975c1.37,0,2.454,0.322,3.25,0.966
			c0.797,0.644,1.195,1.535,1.195,2.67V280.255z"/>
	</g>
</g>
<g>
	<polygon fill="#FBBD17" points="107.794,218.983 89.92,218.469 107.478,221.858 89.532,219.876 106.244,224.594 88.691,221.195 
		104.126,227.12 87.42,222.394 101.179,229.371 85.753,223.439 97.478,231.289 83.731,224.306 93.119,232.824 81.409,224.97 
		88.216,233.937 78.844,225.415 82.895,234.597 76.105,225.629 77.294,234.791 73.262,225.606 71.559,234.509 70.388,225.349 
		65.836,233.761 67.558,224.861 60.277,232.568 64.846,224.157 55.023,230.957 62.321,223.256 50.211,228.972 60.049,222.179 
		45.965,226.663 58.089,220.955 42.396,224.093 56.492,219.616 39.597,221.325 55.299,218.197 37.638,218.433 54.541,216.733 
		36.572,215.49 54.236,215.265 36.426,212.574 54.395,213.827 37.204,209.76 55.011,212.459 38.885,207.12 56.07,211.195 
		41.426,204.724 57.544,210.07 44.761,202.633 59.395,209.111 48.804,200.9 61.574,208.344 53.45,199.572 64.025,207.787 
		58.579,198.683 66.686,207.457 64.058,198.255 69.486,207.36 69.744,198.299 72.354,207.501 75.491,198.815 75.215,207.875 
		81.151,199.789 77.995,208.473 86.575,201.196 80.622,209.277 91.625,203 83.028,210.271 96.168,205.153 85.151,211.424 
		100.088,207.601 86.935,212.709 103.283,210.278 88.335,214.093 105.669,213.118 89.314,215.54 107.187,216.045 89.847,217.011 	
		"/>
	<ellipse fill="#F4E90F" cx="72.089" cy="216.504" rx="26.439" ry="12.827"/>
	<text transform="matrix(1 0 0 1 42.4561 212.8911)" font-family="'ComicSansMS'" font-size="8.3735">featuring dante</text>
</g>
<g>
	<rect x="355.279" y="364.997" fill="#FFFFFF" width="124.078" height="124.078"/>
	<g>
		<rect x="361.493" y="373.817" width="111.65" height="9.639"/>
		<rect x="361.493" y="470.618" width="111.65" height="9.639"/>
	</g>
</g>
<g>
	<path fill="#00ADEF" d="M472.59,424.831c-0.873-0.225-2.148-0.174-2.895,0.408l-12.854,10.033
		c-0.074,0.059-0.148,0.115-0.221,0.174c-2.828-3.135-5.654-6.27-8.481-9.404c-0.315-0.348-0.63-0.697-0.946-1.047l-5.86-13.248
		h7.093c1.813,3.201,3.627,6.402,5.439,9.604c1.025,1.809,3.449,2.412,5.227,1.369c1.813-1.061,2.396-3.414,1.37-5.225
		c-2.171-3.832-4.341-7.664-6.512-11.496c-0.661-1.166-1.967-1.893-3.298-1.893h-17.955c1.038-1.238,1.664-2.834,1.664-4.576
		c0-3.266-2.195-6.014-5.189-6.859h-48.806v13.986h2.633l0.36,0.852h-6.331v40.578h3.892l-5.332,13.316h47.104l0.002-0.008
		c1.283-0.043,2.545-0.688,3.162-1.869c1.904-3.65,3.809-7.303,5.713-10.953c3.133-6.006,6.267-12.014,9.4-18.021
		c0.118-0.227,0.236-0.455,0.355-0.684c2.432,2.697,4.863,5.393,7.295,8.088c1.625,1.803,3.25,3.605,4.875,5.406
		c0.573,0.637,1.559,1.039,2.533,1.096l0.007,0.008l-0.006-0.008c0.76,0.043,1.515-0.121,2.063-0.551
		c4.284-3.346,8.568-6.689,12.854-10.033c0.877-0.686,1.754-1.369,2.631-2.055c0.843-0.656,1.479-1.258,1.759-2.336
		c0.252-0.977,0.104-2.025-0.409-2.895C474.414,425.719,473.566,425.083,472.59,424.831z"/>
	<path fill="#010101" d="M420.986,461.403h-19.462v-23.465c0-3.367-1.769-5.051-5.304-5.051h-9.539v18.723h9.978v9.793h-35.166
		v-9.793h9.978v-49.146h-9.978v-9.793h42.64c8.238,0,12.357,3.789,12.357,11.369v14.783c0,6.898-2.22,10.705-6.659,11.418v0.305
		c4.439,0,6.659,2.67,6.659,8.008v13.057h4.496V461.403z M401.339,417.272v-11.857c0-1.967-0.991-2.951-2.973-2.951h-11.686v20.508
		h9.738C399.699,422.971,401.339,421.073,401.339,417.272z"/>
	<path fill="#010101" d="M440.386,440.684v16.902c0,1.18-0.422,2.111-1.264,2.793c-0.843,0.682-1.982,1.023-3.421,1.023h-7.894
		c-1.464,0-2.583-0.381-3.357-1.145c-0.737-0.725-1.106-1.713-1.106-2.967v-16.865c0-1.303,0.479-2.293,1.438-2.969
		c0.824-0.59,1.869-0.883,3.136-0.883h8.004C438.898,436.575,440.386,437.944,440.386,440.684z M434.914,456.815v-15.637
		c0-0.711-0.297-1.066-0.887-1.066h-4.249c-0.641,0-0.961,0.367-0.961,1.104v15.637c0,0.676,0.345,1.012,1.035,1.012h4.101
		C434.593,457.864,434.914,457.514,434.914,456.815z"/>
	<path fill="#010101" d="M462.268,436.575v3.537h-12.449c-0.64,0-0.958,0.367-0.958,1.104v15.637c0,0.676,0.344,1.012,1.033,1.012
		h4.099c0.627,0,0.94-0.354,0.94-1.064v-3.652h5.473v4.424c0,1.178-0.42,2.111-1.263,2.799c-0.843,0.689-1.976,1.033-3.401,1.033
		h-7.893c-2.975,0-4.462-1.371-4.462-4.111v-16.865c0-1.303,0.474-2.293,1.419-2.969c0.824-0.59,1.869-0.883,3.136-0.883H462.268z"
		/>
</g>
<g>
	<g>
		<rect x="570.037" y="384.594" fill="#FFFFFF" width="124.078" height="124.078"/>
		<g>
			<rect x="576.25" y="393.415" width="111.65" height="9.639"/>
			<rect x="576.25" y="490.215" width="111.65" height="9.639"/>
		</g>
	</g>
	<g>
		<path fill="#00ADEF" d="M685.388,447.358c-0.469-0.791-1.243-1.375-2.136-1.605c-0.796-0.205-1.961-0.16-2.643,0.373
			l-11.745,9.168c-0.068,0.053-0.135,0.105-0.201,0.158c-2.584-2.863-5.166-5.729-7.75-8.592c-0.287-0.32-0.576-0.639-0.863-0.959
			l-5.355-12.102h6.48c1.656,2.922,3.313,5.848,4.969,8.773c0.938,1.652,3.152,2.201,4.777,1.252
			c1.654-0.971,2.188-3.121,1.25-4.775c-1.982-3.502-3.965-7.002-5.947-10.502c-0.605-1.068-1.799-1.73-3.014-1.73h-16.405
			c0.949-1.131,1.521-2.588,1.521-4.18c0-2.982-2.006-5.496-4.742-6.268h-44.592c-3.588,0-6.496,2.908-6.496,6.496
			c0,3.213,2.334,5.879,5.4,6.4c-0.188,0.221-0.38,0.441-0.568,0.66c-0.462,0.537-0.924,1.072-1.386,1.607
			c-0.229,0.266-0.456,0.531-0.687,0.797c-1.693,1.963-3.389,3.93-5.082,5.893c-2.49-0.01-4.982-0.02-7.474-0.025
			c-1.897-0.008-3.48,1.588-3.48,3.479c0,1.904,1.583,3.477,3.48,3.484c2.478,0.01,4.953,0.016,7.429,0.025
			c1.453,0.006,3.061,0.174,4.14-1.078c0.548-0.635,1.095-1.268,1.641-1.902c0.012-0.012,0.021-0.025,0.033-0.037
			c1.436-1.668,2.87-3.33,4.306-4.994l5.384,12.172c-0.632,1.207-1.261,2.418-1.892,3.625c-2.439,4.676-4.879,9.354-7.316,14.029
			c-0.419,0.799-0.835,1.598-1.251,2.396c-0.784,1.508-1.571,3.014-2.358,4.523c-0.878,1.682-0.445,3.77,1.248,4.762
			c0.203,0.117,0.419,0.213,0.641,0.285l-0.078,0.197h43.039l0.002-0.004c1.17-0.041,2.325-0.627,2.888-1.707
			c1.741-3.338,3.479-6.674,5.221-10.008c2.863-5.488,5.724-10.979,8.587-16.465c0.109-0.207,0.217-0.416,0.324-0.627
			c2.223,2.467,4.444,4.928,6.666,7.391c1.486,1.646,2.971,3.293,4.453,4.939c0.524,0.582,1.426,0.949,2.316,1
			c0.695,0.041,1.385-0.111,1.887-0.502c3.913-3.057,7.828-6.111,11.743-9.168c0.801-0.625,1.603-1.25,2.404-1.877
			c0.77-0.6,1.351-1.148,1.606-2.135C685.991,449.112,685.855,448.155,685.388,447.358z"/>
		<g>
			<circle fill="#010101" cx="598.89" cy="422.698" r="6.56"/>
			<g>
				<path fill="#010101" d="M630.574,439.118c-1.998-3.527-3.996-7.053-5.993-10.58c-0.608-1.074-1.81-1.74-3.036-1.74
					c-4.948,0-9.896,0-14.846,0c-1.759,0-3.518,0-5.275,0c-1.788,0-2.559,1.111-3.545,2.254c-0.92,1.068-1.842,2.137-2.762,3.205
					c-2.008,2.33-4.017,4.658-6.024,6.986c0.829-0.342,1.657-0.686,2.486-1.029c-3.048-0.012-6.095-0.021-9.142-0.033
					c-1.916-0.008-3.515,1.604-3.515,3.516c0,1.922,1.599,3.51,3.515,3.516c2.501,0.01,5.001,0.018,7.501,0.027
					c1.47,0.006,3.091,0.178,4.183-1.088c0.552-0.641,1.104-1.281,1.656-1.922c2.711-3.145,5.421-6.287,8.131-9.432
					c-0.828,0.344-1.656,0.688-2.486,1.029c4.949,0,9.898,0,14.847,0c1.759,0,3.519,0,5.276,0c-1.012-0.58-2.023-1.16-3.035-1.74
					c1.998,3.527,3.995,7.053,5.993,10.58c0.943,1.664,3.175,2.219,4.811,1.262C630.982,442.95,631.519,440.786,630.574,439.118z"/>
				<path fill="#010101" d="M613.619,451.409c3.273,3.629,6.546,7.258,9.818,10.887c1.496,1.658,2.992,3.316,4.487,4.975
					c0.94,1.043,3.077,1.402,4.231,0.5c3.943-3.078,7.887-6.156,11.83-9.234c0.808-0.629,1.615-1.26,2.422-1.891
					c0.775-0.605,1.362-1.156,1.619-2.148c0.231-0.9,0.096-1.865-0.377-2.666c-0.471-0.799-1.25-1.385-2.148-1.617
					c-0.804-0.207-1.978-0.16-2.665,0.375c-3.944,3.078-7.887,6.156-11.83,9.236c-0.808,0.629-1.615,1.26-2.423,1.891
					c1.41,0.166,2.82,0.334,4.231,0.5c-3.272-3.629-6.546-7.258-9.819-10.887c-1.495-1.658-2.99-3.316-4.486-4.975
					c-1.284-1.424-3.709-1.223-4.973,0.082C612.136,447.879,612.336,449.987,613.619,451.409z"/>
				<path fill="#010101" d="M598.722,477.805c1.753-3.361,3.506-6.723,5.259-10.082c2.884-5.529,5.767-11.059,8.651-16.586
					c0.794-1.523,1.588-3.045,2.382-4.568c0.887-1.699,0.45-3.807-1.261-4.811c-1.593-0.932-3.925-0.436-4.811,1.262
					c-1.752,3.361-3.506,6.721-5.258,10.082c-2.884,5.529-5.768,11.057-8.651,16.586c-0.794,1.521-1.589,3.045-2.383,4.568
					c-0.886,1.699-0.45,3.807,1.262,4.809C595.505,479.999,597.837,479.502,598.722,477.805z"/>
				<line fill="#010101" x1="604.57" y1="430.981" x2="612.539" y2="448.995"/>
				<polyline fill="#010101" points="598.599,433.624 606.568,451.635 618.509,446.354 610.541,428.34 				"/>
			</g>
		</g>
	</g>
</g>
</svg>
